<mxfile modified="2020-11-20T00:49:45.654Z" host="app.diagrams.net" agent="5.0 (Windows NT 10.0; Win64; x64) AppleWebKit/537.36 (KHTML, like Gecko) Chrome/86.0.4240.198 Safari/537.36" etag="Iq-fmEg41VF3J1dfn4Lm" version="13.10.0" type="github" pages="3">
  <diagram id="lzfuCFlkRlJ_R8Awkxvl" name="第 1 页">
    <mxGraphModel dx="1248" dy="662" grid="1" gridSize="10" guides="1" tooltips="1" connect="1" arrows="1" fold="1" page="1" pageScale="1" pageWidth="827" pageHeight="1169" math="0" shadow="0">
      <root>
        <mxCell id="0" />
        <mxCell id="1" parent="0" />
        <mxCell id="z5i8Du2Py8ev8nXOOjrE-1" value="1" style="ellipse;whiteSpace=wrap;html=1;fontSize=16;strokeWidth=2;" parent="1" vertex="1">
          <mxGeometry x="70" y="60" width="30" height="30" as="geometry" />
        </mxCell>
        <mxCell id="z5i8Du2Py8ev8nXOOjrE-21" style="edgeStyle=none;rounded=0;orthogonalLoop=1;jettySize=auto;html=1;exitX=0;exitY=1;exitDx=0;exitDy=0;entryX=1;entryY=0;entryDx=0;entryDy=0;endArrow=none;endFill=0;fontSize=16;strokeWidth=2;" parent="1" source="z5i8Du2Py8ev8nXOOjrE-2" target="z5i8Du2Py8ev8nXOOjrE-6" edge="1">
          <mxGeometry relative="1" as="geometry" />
        </mxCell>
        <mxCell id="z5i8Du2Py8ev8nXOOjrE-2" value="5" style="ellipse;whiteSpace=wrap;html=1;fontSize=16;strokeWidth=2;" parent="1" vertex="1">
          <mxGeometry x="280" y="150" width="30" height="30" as="geometry" />
        </mxCell>
        <mxCell id="z5i8Du2Py8ev8nXOOjrE-23" style="edgeStyle=none;rounded=0;orthogonalLoop=1;jettySize=auto;html=1;exitX=0.5;exitY=0;exitDx=0;exitDy=0;entryX=0.5;entryY=1;entryDx=0;entryDy=0;endArrow=none;endFill=0;fontSize=16;strokeWidth=2;" parent="1" source="z5i8Du2Py8ev8nXOOjrE-3" target="z5i8Du2Py8ev8nXOOjrE-1" edge="1">
          <mxGeometry relative="1" as="geometry" />
        </mxCell>
        <mxCell id="z5i8Du2Py8ev8nXOOjrE-3" value="7" style="ellipse;whiteSpace=wrap;html=1;fontSize=16;strokeWidth=2;" parent="1" vertex="1">
          <mxGeometry x="95" y="200" width="30" height="30" as="geometry" />
        </mxCell>
        <mxCell id="z5i8Du2Py8ev8nXOOjrE-11" style="rounded=0;orthogonalLoop=1;jettySize=auto;html=1;entryX=1;entryY=1;entryDx=0;entryDy=0;endArrow=none;endFill=0;exitX=0;exitY=0.5;exitDx=0;exitDy=0;fontSize=16;strokeWidth=2;" parent="1" source="z5i8Du2Py8ev8nXOOjrE-4" target="z5i8Du2Py8ev8nXOOjrE-1" edge="1">
          <mxGeometry relative="1" as="geometry">
            <mxPoint x="200" y="145" as="sourcePoint" />
          </mxGeometry>
        </mxCell>
        <mxCell id="z5i8Du2Py8ev8nXOOjrE-19" style="edgeStyle=none;rounded=0;orthogonalLoop=1;jettySize=auto;html=1;exitX=1;exitY=0.5;exitDx=0;exitDy=0;entryX=0;entryY=0.5;entryDx=0;entryDy=0;endArrow=none;endFill=0;fontSize=16;strokeWidth=2;" parent="1" source="z5i8Du2Py8ev8nXOOjrE-4" target="z5i8Du2Py8ev8nXOOjrE-2" edge="1">
          <mxGeometry relative="1" as="geometry" />
        </mxCell>
        <mxCell id="z5i8Du2Py8ev8nXOOjrE-20" style="edgeStyle=none;rounded=0;orthogonalLoop=1;jettySize=auto;html=1;exitX=0.5;exitY=1;exitDx=0;exitDy=0;entryX=0;entryY=0;entryDx=0;entryDy=0;endArrow=none;endFill=0;fontSize=16;strokeWidth=2;" parent="1" source="z5i8Du2Py8ev8nXOOjrE-4" target="z5i8Du2Py8ev8nXOOjrE-6" edge="1">
          <mxGeometry relative="1" as="geometry" />
        </mxCell>
        <mxCell id="z5i8Du2Py8ev8nXOOjrE-22" style="edgeStyle=none;rounded=0;orthogonalLoop=1;jettySize=auto;html=1;exitX=0;exitY=1;exitDx=0;exitDy=0;entryX=1;entryY=0;entryDx=0;entryDy=0;endArrow=none;endFill=0;fontSize=16;strokeWidth=2;" parent="1" source="z5i8Du2Py8ev8nXOOjrE-4" target="z5i8Du2Py8ev8nXOOjrE-3" edge="1">
          <mxGeometry relative="1" as="geometry" />
        </mxCell>
        <mxCell id="z5i8Du2Py8ev8nXOOjrE-4" value="2" style="ellipse;whiteSpace=wrap;html=1;fontSize=16;strokeWidth=2;" parent="1" vertex="1">
          <mxGeometry x="205" y="130" width="30" height="30" as="geometry" />
        </mxCell>
        <mxCell id="z5i8Du2Py8ev8nXOOjrE-14" style="edgeStyle=none;rounded=0;orthogonalLoop=1;jettySize=auto;html=1;exitX=0;exitY=1;exitDx=0;exitDy=0;entryX=1;entryY=0.5;entryDx=0;entryDy=0;endArrow=none;endFill=0;fontSize=16;strokeWidth=2;" parent="1" source="z5i8Du2Py8ev8nXOOjrE-5" target="z5i8Du2Py8ev8nXOOjrE-1" edge="1">
          <mxGeometry relative="1" as="geometry" />
        </mxCell>
        <mxCell id="z5i8Du2Py8ev8nXOOjrE-15" style="edgeStyle=none;rounded=0;orthogonalLoop=1;jettySize=auto;html=1;exitX=1;exitY=1;exitDx=0;exitDy=0;entryX=0;entryY=0.5;entryDx=0;entryDy=0;endArrow=none;endFill=0;fontSize=16;strokeWidth=2;" parent="1" source="z5i8Du2Py8ev8nXOOjrE-5" target="z5i8Du2Py8ev8nXOOjrE-8" edge="1">
          <mxGeometry relative="1" as="geometry" />
        </mxCell>
        <mxCell id="z5i8Du2Py8ev8nXOOjrE-17" style="edgeStyle=none;rounded=0;orthogonalLoop=1;jettySize=auto;html=1;exitX=1;exitY=0.5;exitDx=0;exitDy=0;entryX=0;entryY=0.5;entryDx=0;entryDy=0;endArrow=none;endFill=0;fontSize=16;strokeWidth=2;" parent="1" source="z5i8Du2Py8ev8nXOOjrE-5" target="z5i8Du2Py8ev8nXOOjrE-7" edge="1">
          <mxGeometry relative="1" as="geometry" />
        </mxCell>
        <mxCell id="z5i8Du2Py8ev8nXOOjrE-18" style="edgeStyle=none;rounded=0;orthogonalLoop=1;jettySize=auto;html=1;exitX=0.5;exitY=1;exitDx=0;exitDy=0;entryX=0.5;entryY=0;entryDx=0;entryDy=0;endArrow=none;endFill=0;fontSize=16;strokeWidth=2;" parent="1" source="z5i8Du2Py8ev8nXOOjrE-5" target="z5i8Du2Py8ev8nXOOjrE-4" edge="1">
          <mxGeometry relative="1" as="geometry" />
        </mxCell>
        <mxCell id="z5i8Du2Py8ev8nXOOjrE-5" value="4" style="ellipse;whiteSpace=wrap;html=1;fontSize=16;strokeWidth=2;" parent="1" vertex="1">
          <mxGeometry x="170" y="40" width="30" height="30" as="geometry" />
        </mxCell>
        <mxCell id="z5i8Du2Py8ev8nXOOjrE-6" value="8" style="ellipse;whiteSpace=wrap;html=1;fontSize=16;strokeWidth=2;" parent="1" vertex="1">
          <mxGeometry x="220" y="240" width="30" height="30" as="geometry" />
        </mxCell>
        <mxCell id="z5i8Du2Py8ev8nXOOjrE-16" style="edgeStyle=none;rounded=0;orthogonalLoop=1;jettySize=auto;html=1;exitX=1;exitY=1;exitDx=0;exitDy=0;endArrow=none;endFill=0;entryX=0.5;entryY=0;entryDx=0;entryDy=0;fontSize=16;strokeWidth=2;" parent="1" source="z5i8Du2Py8ev8nXOOjrE-7" target="z5i8Du2Py8ev8nXOOjrE-8" edge="1">
          <mxGeometry relative="1" as="geometry">
            <mxPoint x="460" y="160" as="targetPoint" />
          </mxGeometry>
        </mxCell>
        <mxCell id="z5i8Du2Py8ev8nXOOjrE-7" value="9" style="ellipse;whiteSpace=wrap;html=1;fontSize=16;strokeWidth=2;" parent="1" vertex="1">
          <mxGeometry x="340" y="70" width="30" height="30" as="geometry" />
        </mxCell>
        <mxCell id="z5i8Du2Py8ev8nXOOjrE-27" style="edgeStyle=none;rounded=0;orthogonalLoop=1;jettySize=auto;html=1;exitX=0;exitY=1;exitDx=0;exitDy=0;entryX=1;entryY=0;entryDx=0;entryDy=0;endArrow=none;endFill=0;fontSize=16;strokeWidth=2;" parent="1" source="z5i8Du2Py8ev8nXOOjrE-8" target="z5i8Du2Py8ev8nXOOjrE-2" edge="1">
          <mxGeometry relative="1" as="geometry" />
        </mxCell>
        <mxCell id="z5i8Du2Py8ev8nXOOjrE-8" value="3" style="ellipse;whiteSpace=wrap;html=1;fontSize=16;strokeWidth=2;" parent="1" vertex="1">
          <mxGeometry x="310" y="110" width="30" height="30" as="geometry" />
        </mxCell>
        <mxCell id="z5i8Du2Py8ev8nXOOjrE-24" style="edgeStyle=none;rounded=0;orthogonalLoop=1;jettySize=auto;html=1;exitX=1;exitY=0;exitDx=0;exitDy=0;endArrow=none;endFill=0;fontSize=16;strokeWidth=2;" parent="1" source="z5i8Du2Py8ev8nXOOjrE-9" target="z5i8Du2Py8ev8nXOOjrE-6" edge="1">
          <mxGeometry relative="1" as="geometry" />
        </mxCell>
        <mxCell id="z5i8Du2Py8ev8nXOOjrE-25" style="edgeStyle=none;rounded=0;orthogonalLoop=1;jettySize=auto;html=1;exitX=1;exitY=0;exitDx=0;exitDy=0;entryX=0;entryY=1;entryDx=0;entryDy=0;endArrow=none;endFill=0;fontSize=16;strokeWidth=2;" parent="1" source="z5i8Du2Py8ev8nXOOjrE-9" target="z5i8Du2Py8ev8nXOOjrE-4" edge="1">
          <mxGeometry relative="1" as="geometry" />
        </mxCell>
        <mxCell id="z5i8Du2Py8ev8nXOOjrE-9" value="6" style="ellipse;whiteSpace=wrap;html=1;fontSize=16;strokeWidth=2;" parent="1" vertex="1">
          <mxGeometry x="155" y="225" width="30" height="30" as="geometry" />
        </mxCell>
        <mxCell id="z5i8Du2Py8ev8nXOOjrE-28" value="1" style="ellipse;whiteSpace=wrap;html=1;fillColor=#ffe6cc;strokeColor=#d79b00;fontSize=16;strokeWidth=2;" parent="1" vertex="1">
          <mxGeometry x="70" y="335" width="30" height="30" as="geometry" />
        </mxCell>
        <mxCell id="z5i8Du2Py8ev8nXOOjrE-29" style="edgeStyle=none;rounded=0;orthogonalLoop=1;jettySize=auto;html=1;exitX=0;exitY=1;exitDx=0;exitDy=0;entryX=1;entryY=0;entryDx=0;entryDy=0;endArrow=none;endFill=0;fontSize=16;strokeWidth=2;" parent="1" source="z5i8Du2Py8ev8nXOOjrE-30" target="z5i8Du2Py8ev8nXOOjrE-43" edge="1">
          <mxGeometry relative="1" as="geometry" />
        </mxCell>
        <mxCell id="z5i8Du2Py8ev8nXOOjrE-30" value="5" style="ellipse;whiteSpace=wrap;html=1;fontSize=16;strokeWidth=2;" parent="1" vertex="1">
          <mxGeometry x="280" y="425" width="30" height="30" as="geometry" />
        </mxCell>
        <mxCell id="z5i8Du2Py8ev8nXOOjrE-31" style="edgeStyle=none;rounded=0;orthogonalLoop=1;jettySize=auto;html=1;exitX=0.5;exitY=0;exitDx=0;exitDy=0;entryX=0.5;entryY=1;entryDx=0;entryDy=0;endArrow=none;endFill=0;fillColor=#ffe6cc;strokeColor=#d79b00;fontSize=16;strokeWidth=2;" parent="1" source="z5i8Du2Py8ev8nXOOjrE-32" target="z5i8Du2Py8ev8nXOOjrE-28" edge="1">
          <mxGeometry relative="1" as="geometry" />
        </mxCell>
        <mxCell id="z5i8Du2Py8ev8nXOOjrE-32" value="7" style="ellipse;whiteSpace=wrap;html=1;fontSize=16;strokeWidth=2;" parent="1" vertex="1">
          <mxGeometry x="95" y="475" width="30" height="30" as="geometry" />
        </mxCell>
        <mxCell id="z5i8Du2Py8ev8nXOOjrE-33" style="rounded=0;orthogonalLoop=1;jettySize=auto;html=1;entryX=1;entryY=1;entryDx=0;entryDy=0;endArrow=none;endFill=0;exitX=0;exitY=0.5;exitDx=0;exitDy=0;fillColor=#ffe6cc;strokeColor=#d79b00;fontSize=16;strokeWidth=2;" parent="1" source="z5i8Du2Py8ev8nXOOjrE-37" target="z5i8Du2Py8ev8nXOOjrE-28" edge="1">
          <mxGeometry relative="1" as="geometry">
            <mxPoint x="200" y="420" as="sourcePoint" />
          </mxGeometry>
        </mxCell>
        <mxCell id="z5i8Du2Py8ev8nXOOjrE-34" style="edgeStyle=none;rounded=0;orthogonalLoop=1;jettySize=auto;html=1;exitX=1;exitY=0.5;exitDx=0;exitDy=0;entryX=0;entryY=0.5;entryDx=0;entryDy=0;endArrow=none;endFill=0;fontSize=16;strokeWidth=2;" parent="1" source="z5i8Du2Py8ev8nXOOjrE-37" target="z5i8Du2Py8ev8nXOOjrE-30" edge="1">
          <mxGeometry relative="1" as="geometry" />
        </mxCell>
        <mxCell id="z5i8Du2Py8ev8nXOOjrE-35" style="edgeStyle=none;rounded=0;orthogonalLoop=1;jettySize=auto;html=1;exitX=0.5;exitY=1;exitDx=0;exitDy=0;entryX=0;entryY=0;entryDx=0;entryDy=0;endArrow=none;endFill=0;fontSize=16;strokeWidth=2;" parent="1" source="z5i8Du2Py8ev8nXOOjrE-37" target="z5i8Du2Py8ev8nXOOjrE-43" edge="1">
          <mxGeometry relative="1" as="geometry" />
        </mxCell>
        <mxCell id="z5i8Du2Py8ev8nXOOjrE-36" style="edgeStyle=none;rounded=0;orthogonalLoop=1;jettySize=auto;html=1;exitX=0;exitY=1;exitDx=0;exitDy=0;entryX=1;entryY=0;entryDx=0;entryDy=0;endArrow=none;endFill=0;fontSize=16;strokeWidth=2;" parent="1" source="z5i8Du2Py8ev8nXOOjrE-37" target="z5i8Du2Py8ev8nXOOjrE-32" edge="1">
          <mxGeometry relative="1" as="geometry" />
        </mxCell>
        <mxCell id="z5i8Du2Py8ev8nXOOjrE-37" value="2" style="ellipse;whiteSpace=wrap;html=1;fontSize=16;strokeWidth=2;" parent="1" vertex="1">
          <mxGeometry x="205" y="405" width="30" height="30" as="geometry" />
        </mxCell>
        <mxCell id="z5i8Du2Py8ev8nXOOjrE-38" style="edgeStyle=none;rounded=0;orthogonalLoop=1;jettySize=auto;html=1;exitX=0;exitY=1;exitDx=0;exitDy=0;entryX=1;entryY=0.5;entryDx=0;entryDy=0;endArrow=none;endFill=0;fillColor=#ffe6cc;strokeColor=#d79b00;fontSize=16;strokeWidth=2;" parent="1" source="z5i8Du2Py8ev8nXOOjrE-42" target="z5i8Du2Py8ev8nXOOjrE-28" edge="1">
          <mxGeometry relative="1" as="geometry" />
        </mxCell>
        <mxCell id="z5i8Du2Py8ev8nXOOjrE-39" style="edgeStyle=none;rounded=0;orthogonalLoop=1;jettySize=auto;html=1;exitX=1;exitY=1;exitDx=0;exitDy=0;entryX=0;entryY=0.5;entryDx=0;entryDy=0;endArrow=none;endFill=0;fontSize=16;strokeWidth=2;" parent="1" source="z5i8Du2Py8ev8nXOOjrE-42" target="z5i8Du2Py8ev8nXOOjrE-47" edge="1">
          <mxGeometry relative="1" as="geometry" />
        </mxCell>
        <mxCell id="z5i8Du2Py8ev8nXOOjrE-40" style="edgeStyle=none;rounded=0;orthogonalLoop=1;jettySize=auto;html=1;exitX=1;exitY=0.5;exitDx=0;exitDy=0;entryX=0;entryY=0.5;entryDx=0;entryDy=0;endArrow=none;endFill=0;fontSize=16;strokeWidth=2;" parent="1" source="z5i8Du2Py8ev8nXOOjrE-42" target="z5i8Du2Py8ev8nXOOjrE-45" edge="1">
          <mxGeometry relative="1" as="geometry" />
        </mxCell>
        <mxCell id="z5i8Du2Py8ev8nXOOjrE-41" style="edgeStyle=none;rounded=0;orthogonalLoop=1;jettySize=auto;html=1;exitX=0.5;exitY=1;exitDx=0;exitDy=0;entryX=0.5;entryY=0;entryDx=0;entryDy=0;endArrow=none;endFill=0;fontSize=16;strokeWidth=2;" parent="1" source="z5i8Du2Py8ev8nXOOjrE-42" target="z5i8Du2Py8ev8nXOOjrE-37" edge="1">
          <mxGeometry relative="1" as="geometry" />
        </mxCell>
        <mxCell id="z5i8Du2Py8ev8nXOOjrE-42" value="4" style="ellipse;whiteSpace=wrap;html=1;fontSize=16;strokeWidth=2;" parent="1" vertex="1">
          <mxGeometry x="170" y="315" width="30" height="30" as="geometry" />
        </mxCell>
        <mxCell id="z5i8Du2Py8ev8nXOOjrE-43" value="8" style="ellipse;whiteSpace=wrap;html=1;fontSize=16;strokeWidth=2;" parent="1" vertex="1">
          <mxGeometry x="220" y="515" width="30" height="30" as="geometry" />
        </mxCell>
        <mxCell id="z5i8Du2Py8ev8nXOOjrE-44" style="edgeStyle=none;rounded=0;orthogonalLoop=1;jettySize=auto;html=1;exitX=1;exitY=1;exitDx=0;exitDy=0;endArrow=none;endFill=0;entryX=0.5;entryY=0;entryDx=0;entryDy=0;fontSize=16;strokeWidth=2;" parent="1" source="z5i8Du2Py8ev8nXOOjrE-45" target="z5i8Du2Py8ev8nXOOjrE-47" edge="1">
          <mxGeometry relative="1" as="geometry">
            <mxPoint x="460" y="435" as="targetPoint" />
          </mxGeometry>
        </mxCell>
        <mxCell id="z5i8Du2Py8ev8nXOOjrE-45" value="9" style="ellipse;whiteSpace=wrap;html=1;fontSize=16;strokeWidth=2;" parent="1" vertex="1">
          <mxGeometry x="340" y="345" width="30" height="30" as="geometry" />
        </mxCell>
        <mxCell id="z5i8Du2Py8ev8nXOOjrE-46" style="edgeStyle=none;rounded=0;orthogonalLoop=1;jettySize=auto;html=1;exitX=0;exitY=1;exitDx=0;exitDy=0;entryX=1;entryY=0;entryDx=0;entryDy=0;endArrow=none;endFill=0;fontSize=16;strokeWidth=2;" parent="1" source="z5i8Du2Py8ev8nXOOjrE-47" target="z5i8Du2Py8ev8nXOOjrE-30" edge="1">
          <mxGeometry relative="1" as="geometry" />
        </mxCell>
        <mxCell id="z5i8Du2Py8ev8nXOOjrE-47" value="3" style="ellipse;whiteSpace=wrap;html=1;fontSize=16;strokeWidth=2;" parent="1" vertex="1">
          <mxGeometry x="310" y="385" width="30" height="30" as="geometry" />
        </mxCell>
        <mxCell id="z5i8Du2Py8ev8nXOOjrE-48" style="edgeStyle=none;rounded=0;orthogonalLoop=1;jettySize=auto;html=1;exitX=1;exitY=0;exitDx=0;exitDy=0;endArrow=none;endFill=0;fontSize=16;strokeWidth=2;" parent="1" source="z5i8Du2Py8ev8nXOOjrE-50" target="z5i8Du2Py8ev8nXOOjrE-43" edge="1">
          <mxGeometry relative="1" as="geometry" />
        </mxCell>
        <mxCell id="z5i8Du2Py8ev8nXOOjrE-49" style="edgeStyle=none;rounded=0;orthogonalLoop=1;jettySize=auto;html=1;exitX=1;exitY=0;exitDx=0;exitDy=0;entryX=0;entryY=1;entryDx=0;entryDy=0;endArrow=none;endFill=0;fontSize=16;strokeWidth=2;" parent="1" source="z5i8Du2Py8ev8nXOOjrE-50" target="z5i8Du2Py8ev8nXOOjrE-37" edge="1">
          <mxGeometry relative="1" as="geometry" />
        </mxCell>
        <mxCell id="z5i8Du2Py8ev8nXOOjrE-50" value="6" style="ellipse;whiteSpace=wrap;html=1;fontSize=16;strokeWidth=2;" parent="1" vertex="1">
          <mxGeometry x="155" y="500" width="30" height="30" as="geometry" />
        </mxCell>
        <mxCell id="z5i8Du2Py8ev8nXOOjrE-53" value="" style="curved=1;endArrow=classic;html=1;fillColor=#d5e8d4;strokeColor=#82b366;fontSize=16;strokeWidth=2;" parent="1" edge="1">
          <mxGeometry width="50" height="50" relative="1" as="geometry">
            <mxPoint x="90" y="370" as="sourcePoint" />
            <mxPoint x="200" y="430" as="targetPoint" />
            <Array as="points">
              <mxPoint x="130" y="420" />
            </Array>
          </mxGeometry>
        </mxCell>
        <mxCell id="z5i8Du2Py8ev8nXOOjrE-54" value="" style="curved=1;endArrow=classic;html=1;fillColor=#d5e8d4;strokeColor=#82b366;fontSize=16;strokeWidth=2;" parent="1" edge="1">
          <mxGeometry width="50" height="50" relative="1" as="geometry">
            <mxPoint x="230" y="440" as="sourcePoint" />
            <mxPoint x="230" y="510" as="targetPoint" />
            <Array as="points">
              <mxPoint x="240" y="480" />
            </Array>
          </mxGeometry>
        </mxCell>
        <mxCell id="z5i8Du2Py8ev8nXOOjrE-55" value="" style="curved=1;endArrow=classic;html=1;fillColor=#d5e8d4;strokeColor=#82b366;fontSize=16;strokeWidth=2;" parent="1" edge="1">
          <mxGeometry width="50" height="50" relative="1" as="geometry">
            <mxPoint x="260" y="520" as="sourcePoint" />
            <mxPoint x="290" y="460" as="targetPoint" />
            <Array as="points">
              <mxPoint x="280" y="500" />
            </Array>
          </mxGeometry>
        </mxCell>
        <mxCell id="z5i8Du2Py8ev8nXOOjrE-56" value="" style="curved=1;endArrow=classic;html=1;fillColor=#d5e8d4;strokeColor=#82b366;fontSize=16;strokeWidth=2;" parent="1" edge="1">
          <mxGeometry width="50" height="50" relative="1" as="geometry">
            <mxPoint x="290" y="420" as="sourcePoint" />
            <mxPoint x="240" y="400" as="targetPoint" />
            <Array as="points">
              <mxPoint x="270" y="400" />
            </Array>
          </mxGeometry>
        </mxCell>
        <mxCell id="OanUgY9QcuNFeh2ZwCuF-8" value="1" style="ellipse;whiteSpace=wrap;html=1;fontSize=16;strokeWidth=2;" parent="1" vertex="1">
          <mxGeometry x="425" y="385" width="30" height="30" as="geometry" />
        </mxCell>
        <mxCell id="OanUgY9QcuNFeh2ZwCuF-9" style="edgeStyle=none;rounded=0;orthogonalLoop=1;jettySize=auto;html=1;exitX=0;exitY=0.5;exitDx=0;exitDy=0;entryX=1;entryY=0.5;entryDx=0;entryDy=0;endArrow=none;endFill=0;startArrow=classic;startFill=1;fontSize=16;strokeWidth=2;" parent="1" source="OanUgY9QcuNFeh2ZwCuF-10" target="OanUgY9QcuNFeh2ZwCuF-15" edge="1">
          <mxGeometry relative="1" as="geometry" />
        </mxCell>
        <mxCell id="OanUgY9QcuNFeh2ZwCuF-10" value="5" style="ellipse;whiteSpace=wrap;html=1;fontSize=16;strokeWidth=2;" parent="1" vertex="1">
          <mxGeometry x="650" y="385" width="30" height="30" as="geometry" />
        </mxCell>
        <mxCell id="OanUgY9QcuNFeh2ZwCuF-11" style="rounded=0;orthogonalLoop=1;jettySize=auto;html=1;entryX=1;entryY=0.5;entryDx=0;entryDy=0;endArrow=none;endFill=0;exitX=0;exitY=0.5;exitDx=0;exitDy=0;startArrow=classic;startFill=1;fontSize=16;strokeWidth=2;" parent="1" source="OanUgY9QcuNFeh2ZwCuF-14" target="OanUgY9QcuNFeh2ZwCuF-8" edge="1">
          <mxGeometry relative="1" as="geometry">
            <mxPoint x="540" y="410" as="sourcePoint" />
          </mxGeometry>
        </mxCell>
        <mxCell id="OanUgY9QcuNFeh2ZwCuF-13" style="edgeStyle=none;rounded=0;orthogonalLoop=1;jettySize=auto;html=1;exitX=1;exitY=0.5;exitDx=0;exitDy=0;endArrow=classic;endFill=1;entryX=0;entryY=0.5;entryDx=0;entryDy=0;startArrow=none;startFill=0;fontSize=16;strokeWidth=2;" parent="1" source="OanUgY9QcuNFeh2ZwCuF-14" target="OanUgY9QcuNFeh2ZwCuF-15" edge="1">
          <mxGeometry relative="1" as="geometry">
            <mxPoint x="600" y="400" as="targetPoint" />
          </mxGeometry>
        </mxCell>
        <mxCell id="OanUgY9QcuNFeh2ZwCuF-14" value="2" style="ellipse;whiteSpace=wrap;html=1;fontSize=16;strokeWidth=2;" parent="1" vertex="1">
          <mxGeometry x="500" y="385" width="30" height="30" as="geometry" />
        </mxCell>
        <mxCell id="OanUgY9QcuNFeh2ZwCuF-15" value="8" style="ellipse;whiteSpace=wrap;html=1;fontSize=16;strokeWidth=2;" parent="1" vertex="1">
          <mxGeometry x="575" y="385" width="30" height="30" as="geometry" />
        </mxCell>
        <mxCell id="OanUgY9QcuNFeh2ZwCuF-16" style="rounded=0;orthogonalLoop=1;jettySize=auto;html=1;endArrow=none;endFill=0;exitX=0;exitY=0.5;exitDx=0;exitDy=0;entryX=1;entryY=0.5;entryDx=0;entryDy=0;startArrow=classic;startFill=1;fontSize=16;strokeWidth=2;" parent="1" source="OanUgY9QcuNFeh2ZwCuF-17" target="OanUgY9QcuNFeh2ZwCuF-10" edge="1">
          <mxGeometry relative="1" as="geometry">
            <mxPoint x="765" y="410" as="sourcePoint" />
            <mxPoint x="690" y="400" as="targetPoint" />
          </mxGeometry>
        </mxCell>
        <mxCell id="OanUgY9QcuNFeh2ZwCuF-17" value="2" style="ellipse;whiteSpace=wrap;html=1;fontSize=16;strokeWidth=2;" parent="1" vertex="1">
          <mxGeometry x="725" y="385" width="30" height="30" as="geometry" />
        </mxCell>
        <mxCell id="OanUgY9QcuNFeh2ZwCuF-20" value="" style="rounded=0;whiteSpace=wrap;html=1;fillColor=none;dashed=1;fontSize=16;strokeWidth=2;" parent="1" vertex="1">
          <mxGeometry x="480" y="370" width="220" height="60" as="geometry" />
        </mxCell>
        <mxCell id="OanUgY9QcuNFeh2ZwCuF-21" value="1" style="ellipse;whiteSpace=wrap;html=1;fillColor=#ffe6cc;strokeColor=#d79b00;fontSize=16;strokeWidth=2;" parent="1" vertex="1">
          <mxGeometry x="70" y="630" width="30" height="30" as="geometry" />
        </mxCell>
        <mxCell id="OanUgY9QcuNFeh2ZwCuF-22" style="edgeStyle=none;rounded=0;orthogonalLoop=1;jettySize=auto;html=1;exitX=0;exitY=1;exitDx=0;exitDy=0;entryX=1;entryY=0;entryDx=0;entryDy=0;endArrow=none;endFill=0;fontSize=16;strokeWidth=2;" parent="1" source="OanUgY9QcuNFeh2ZwCuF-23" target="OanUgY9QcuNFeh2ZwCuF-36" edge="1">
          <mxGeometry relative="1" as="geometry" />
        </mxCell>
        <mxCell id="OanUgY9QcuNFeh2ZwCuF-23" value="5" style="ellipse;whiteSpace=wrap;html=1;fillColor=#d5e8d4;strokeColor=#82b366;fontSize=16;strokeWidth=2;" parent="1" vertex="1">
          <mxGeometry x="310" y="735" width="30" height="30" as="geometry" />
        </mxCell>
        <mxCell id="OanUgY9QcuNFeh2ZwCuF-24" style="edgeStyle=none;rounded=0;orthogonalLoop=1;jettySize=auto;html=1;exitX=0.5;exitY=0;exitDx=0;exitDy=0;entryX=0.5;entryY=1;entryDx=0;entryDy=0;endArrow=none;endFill=0;fontSize=16;strokeWidth=2;" parent="1" source="OanUgY9QcuNFeh2ZwCuF-25" target="OanUgY9QcuNFeh2ZwCuF-21" edge="1">
          <mxGeometry relative="1" as="geometry" />
        </mxCell>
        <mxCell id="OanUgY9QcuNFeh2ZwCuF-25" value="7" style="ellipse;whiteSpace=wrap;html=1;fillColor=#dae8fc;strokeColor=#6c8ebf;fontSize=16;strokeWidth=2;" parent="1" vertex="1">
          <mxGeometry x="95" y="770" width="30" height="30" as="geometry" />
        </mxCell>
        <mxCell id="OanUgY9QcuNFeh2ZwCuF-26" style="rounded=0;orthogonalLoop=1;jettySize=auto;html=1;entryX=1;entryY=1;entryDx=0;entryDy=0;endArrow=none;endFill=0;exitX=0;exitY=0.5;exitDx=0;exitDy=0;fillColor=#ffe6cc;strokeColor=#d79b00;fontSize=16;strokeWidth=2;" parent="1" source="OanUgY9QcuNFeh2ZwCuF-46" target="OanUgY9QcuNFeh2ZwCuF-21" edge="1">
          <mxGeometry relative="1" as="geometry">
            <mxPoint x="200" y="715" as="sourcePoint" />
          </mxGeometry>
        </mxCell>
        <mxCell id="OanUgY9QcuNFeh2ZwCuF-27" style="edgeStyle=none;rounded=0;orthogonalLoop=1;jettySize=auto;html=1;exitX=1;exitY=0.5;exitDx=0;exitDy=0;entryX=0;entryY=0.5;entryDx=0;entryDy=0;endArrow=none;endFill=0;fillColor=#d5e8d4;strokeColor=#82b366;fontSize=16;strokeWidth=2;" parent="1" source="OanUgY9QcuNFeh2ZwCuF-50" target="OanUgY9QcuNFeh2ZwCuF-23" edge="1">
          <mxGeometry relative="1" as="geometry" />
        </mxCell>
        <mxCell id="OanUgY9QcuNFeh2ZwCuF-28" style="edgeStyle=none;rounded=0;orthogonalLoop=1;jettySize=auto;html=1;exitX=0.5;exitY=1;exitDx=0;exitDy=0;entryX=0.5;entryY=0;entryDx=0;entryDy=0;endArrow=none;endFill=0;fillColor=#d5e8d4;strokeColor=#82b366;fontSize=16;strokeWidth=2;" parent="1" source="OanUgY9QcuNFeh2ZwCuF-54" target="OanUgY9QcuNFeh2ZwCuF-36" edge="1">
          <mxGeometry relative="1" as="geometry" />
        </mxCell>
        <mxCell id="OanUgY9QcuNFeh2ZwCuF-29" style="edgeStyle=none;rounded=0;orthogonalLoop=1;jettySize=auto;html=1;exitX=0;exitY=1;exitDx=0;exitDy=0;entryX=1;entryY=0;entryDx=0;entryDy=0;endArrow=none;endFill=0;fillColor=#dae8fc;strokeColor=#6c8ebf;fontSize=16;strokeWidth=2;" parent="1" source="OanUgY9QcuNFeh2ZwCuF-52" target="OanUgY9QcuNFeh2ZwCuF-25" edge="1">
          <mxGeometry relative="1" as="geometry" />
        </mxCell>
        <mxCell id="OanUgY9QcuNFeh2ZwCuF-30" value="2" style="ellipse;whiteSpace=wrap;html=1;fillColor=#ffe6cc;strokeColor=#d79b00;fontSize=16;strokeWidth=2;" parent="1" vertex="1">
          <mxGeometry x="205" y="700" width="30" height="30" as="geometry" />
        </mxCell>
        <mxCell id="OanUgY9QcuNFeh2ZwCuF-31" style="edgeStyle=none;rounded=0;orthogonalLoop=1;jettySize=auto;html=1;exitX=0;exitY=1;exitDx=0;exitDy=0;entryX=1;entryY=0.5;entryDx=0;entryDy=0;endArrow=none;endFill=0;fontSize=16;strokeWidth=2;" parent="1" source="OanUgY9QcuNFeh2ZwCuF-35" target="OanUgY9QcuNFeh2ZwCuF-21" edge="1">
          <mxGeometry relative="1" as="geometry" />
        </mxCell>
        <mxCell id="OanUgY9QcuNFeh2ZwCuF-32" style="edgeStyle=none;rounded=0;orthogonalLoop=1;jettySize=auto;html=1;exitX=1;exitY=1;exitDx=0;exitDy=0;entryX=0;entryY=0.5;entryDx=0;entryDy=0;endArrow=none;endFill=0;fontSize=16;strokeWidth=2;" parent="1" source="OanUgY9QcuNFeh2ZwCuF-35" target="OanUgY9QcuNFeh2ZwCuF-40" edge="1">
          <mxGeometry relative="1" as="geometry" />
        </mxCell>
        <mxCell id="OanUgY9QcuNFeh2ZwCuF-33" style="edgeStyle=none;rounded=0;orthogonalLoop=1;jettySize=auto;html=1;exitX=1;exitY=0.5;exitDx=0;exitDy=0;entryX=0;entryY=0.5;entryDx=0;entryDy=0;endArrow=none;endFill=0;fontSize=16;strokeWidth=2;" parent="1" source="OanUgY9QcuNFeh2ZwCuF-35" target="OanUgY9QcuNFeh2ZwCuF-38" edge="1">
          <mxGeometry relative="1" as="geometry" />
        </mxCell>
        <mxCell id="OanUgY9QcuNFeh2ZwCuF-34" style="edgeStyle=none;rounded=0;orthogonalLoop=1;jettySize=auto;html=1;exitX=0.75;exitY=1;exitDx=0;exitDy=0;entryX=0.5;entryY=0;entryDx=0;entryDy=0;endArrow=none;endFill=0;fillColor=#dae8fc;strokeColor=#6c8ebf;fontSize=16;strokeWidth=2;" parent="1" source="OanUgY9QcuNFeh2ZwCuF-48" target="OanUgY9QcuNFeh2ZwCuF-30" edge="1">
          <mxGeometry relative="1" as="geometry" />
        </mxCell>
        <mxCell id="OanUgY9QcuNFeh2ZwCuF-35" value="4" style="ellipse;whiteSpace=wrap;html=1;fillColor=#dae8fc;strokeColor=#6c8ebf;fontSize=16;strokeWidth=2;" parent="1" vertex="1">
          <mxGeometry x="170" y="610" width="30" height="30" as="geometry" />
        </mxCell>
        <mxCell id="OanUgY9QcuNFeh2ZwCuF-36" value="8" style="ellipse;whiteSpace=wrap;html=1;fillColor=#d5e8d4;strokeColor=#82b366;fontSize=16;strokeWidth=2;" parent="1" vertex="1">
          <mxGeometry x="220" y="810" width="30" height="30" as="geometry" />
        </mxCell>
        <mxCell id="OanUgY9QcuNFeh2ZwCuF-37" style="edgeStyle=none;rounded=0;orthogonalLoop=1;jettySize=auto;html=1;exitX=1;exitY=1;exitDx=0;exitDy=0;endArrow=none;endFill=0;entryX=0.5;entryY=0;entryDx=0;entryDy=0;fontSize=16;strokeWidth=2;" parent="1" source="OanUgY9QcuNFeh2ZwCuF-38" target="OanUgY9QcuNFeh2ZwCuF-40" edge="1">
          <mxGeometry relative="1" as="geometry">
            <mxPoint x="460" y="730" as="targetPoint" />
          </mxGeometry>
        </mxCell>
        <mxCell id="OanUgY9QcuNFeh2ZwCuF-38" value="9" style="ellipse;whiteSpace=wrap;html=1;fontSize=16;strokeWidth=2;" parent="1" vertex="1">
          <mxGeometry x="340" y="640" width="30" height="30" as="geometry" />
        </mxCell>
        <mxCell id="OanUgY9QcuNFeh2ZwCuF-39" style="edgeStyle=none;rounded=0;orthogonalLoop=1;jettySize=auto;html=1;exitX=0;exitY=1;exitDx=0;exitDy=0;entryX=1;entryY=0;entryDx=0;entryDy=0;endArrow=none;endFill=0;fontSize=16;strokeWidth=2;" parent="1" source="OanUgY9QcuNFeh2ZwCuF-40" target="OanUgY9QcuNFeh2ZwCuF-23" edge="1">
          <mxGeometry relative="1" as="geometry" />
        </mxCell>
        <mxCell id="OanUgY9QcuNFeh2ZwCuF-40" value="3" style="ellipse;whiteSpace=wrap;html=1;fontSize=16;strokeWidth=2;" parent="1" vertex="1">
          <mxGeometry x="310" y="680" width="30" height="30" as="geometry" />
        </mxCell>
        <mxCell id="OanUgY9QcuNFeh2ZwCuF-41" style="edgeStyle=none;rounded=0;orthogonalLoop=1;jettySize=auto;html=1;exitX=1;exitY=0;exitDx=0;exitDy=0;endArrow=none;endFill=0;fontSize=16;strokeWidth=2;" parent="1" source="OanUgY9QcuNFeh2ZwCuF-43" target="OanUgY9QcuNFeh2ZwCuF-36" edge="1">
          <mxGeometry relative="1" as="geometry" />
        </mxCell>
        <mxCell id="OanUgY9QcuNFeh2ZwCuF-42" style="edgeStyle=none;rounded=0;orthogonalLoop=1;jettySize=auto;html=1;exitX=0.75;exitY=0;exitDx=0;exitDy=0;entryX=0;entryY=1;entryDx=0;entryDy=0;endArrow=none;endFill=0;fillColor=#d5e8d4;strokeColor=#82b366;fontSize=16;strokeWidth=2;" parent="1" source="OanUgY9QcuNFeh2ZwCuF-56" target="OanUgY9QcuNFeh2ZwCuF-30" edge="1">
          <mxGeometry relative="1" as="geometry" />
        </mxCell>
        <mxCell id="OanUgY9QcuNFeh2ZwCuF-43" value="6" style="ellipse;whiteSpace=wrap;html=1;fillColor=#d5e8d4;strokeColor=#82b366;fontSize=16;strokeWidth=2;" parent="1" vertex="1">
          <mxGeometry x="145" y="820" width="30" height="30" as="geometry" />
        </mxCell>
        <mxCell id="OanUgY9QcuNFeh2ZwCuF-46" value="1/p" style="text;html=1;strokeColor=#000000;fillColor=none;align=center;verticalAlign=middle;whiteSpace=wrap;rounded=1;fontSize=16;strokeWidth=2;" parent="1" vertex="1">
          <mxGeometry x="125" y="675" width="40" height="20" as="geometry" />
        </mxCell>
        <mxCell id="OanUgY9QcuNFeh2ZwCuF-47" style="rounded=0;orthogonalLoop=1;jettySize=auto;html=1;entryX=1;entryY=1;entryDx=0;entryDy=0;endArrow=none;endFill=0;exitX=0;exitY=0.5;exitDx=0;exitDy=0;fillColor=#ffe6cc;strokeColor=#d79b00;fontSize=16;strokeWidth=2;" parent="1" source="OanUgY9QcuNFeh2ZwCuF-30" target="OanUgY9QcuNFeh2ZwCuF-46" edge="1">
          <mxGeometry relative="1" as="geometry">
            <mxPoint x="205" y="715" as="sourcePoint" />
            <mxPoint x="95.60660171779818" y="655.6066017177982" as="targetPoint" />
          </mxGeometry>
        </mxCell>
        <mxCell id="OanUgY9QcuNFeh2ZwCuF-48" value="1" style="text;html=1;strokeColor=#000000;fillColor=none;align=center;verticalAlign=middle;whiteSpace=wrap;rounded=1;fontSize=16;strokeWidth=2;" parent="1" vertex="1">
          <mxGeometry x="185" y="660" width="40" height="20" as="geometry" />
        </mxCell>
        <mxCell id="OanUgY9QcuNFeh2ZwCuF-49" style="edgeStyle=none;rounded=0;orthogonalLoop=1;jettySize=auto;html=1;exitX=0.5;exitY=1;exitDx=0;exitDy=0;endArrow=none;endFill=0;fillColor=#dae8fc;strokeColor=#6c8ebf;fontSize=16;strokeWidth=2;" parent="1" source="OanUgY9QcuNFeh2ZwCuF-35" edge="1">
          <mxGeometry relative="1" as="geometry">
            <mxPoint x="185" y="640" as="sourcePoint" />
            <mxPoint x="205" y="660" as="targetPoint" />
          </mxGeometry>
        </mxCell>
        <mxCell id="OanUgY9QcuNFeh2ZwCuF-50" value="1/q" style="text;html=1;strokeColor=#000000;fillColor=none;align=center;verticalAlign=middle;whiteSpace=wrap;rounded=1;fontSize=16;strokeWidth=2;" parent="1" vertex="1">
          <mxGeometry x="252.5" y="725" width="40" height="20" as="geometry" />
        </mxCell>
        <mxCell id="OanUgY9QcuNFeh2ZwCuF-51" style="edgeStyle=none;rounded=0;orthogonalLoop=1;jettySize=auto;html=1;exitX=1;exitY=0.5;exitDx=0;exitDy=0;entryX=0;entryY=0.5;entryDx=0;entryDy=0;endArrow=none;endFill=0;fillColor=#d5e8d4;strokeColor=#82b366;fontSize=16;strokeWidth=2;" parent="1" source="OanUgY9QcuNFeh2ZwCuF-30" target="OanUgY9QcuNFeh2ZwCuF-50" edge="1">
          <mxGeometry relative="1" as="geometry">
            <mxPoint x="235" y="715" as="sourcePoint" />
            <mxPoint x="280" y="735" as="targetPoint" />
          </mxGeometry>
        </mxCell>
        <mxCell id="OanUgY9QcuNFeh2ZwCuF-52" value="1" style="text;html=1;strokeColor=#000000;fillColor=none;align=center;verticalAlign=middle;whiteSpace=wrap;rounded=1;fontSize=16;strokeWidth=2;" parent="1" vertex="1">
          <mxGeometry x="145" y="740" width="40" height="20" as="geometry" />
        </mxCell>
        <mxCell id="OanUgY9QcuNFeh2ZwCuF-53" style="edgeStyle=none;rounded=0;orthogonalLoop=1;jettySize=auto;html=1;exitX=0;exitY=1;exitDx=0;exitDy=0;entryX=1;entryY=0;entryDx=0;entryDy=0;endArrow=none;endFill=0;fillColor=#dae8fc;strokeColor=#6c8ebf;fontSize=16;strokeWidth=2;" parent="1" source="OanUgY9QcuNFeh2ZwCuF-30" target="OanUgY9QcuNFeh2ZwCuF-52" edge="1">
          <mxGeometry relative="1" as="geometry">
            <mxPoint x="209.39339828220182" y="725.6066017177982" as="sourcePoint" />
            <mxPoint x="120.60660171779818" y="774.3933982822018" as="targetPoint" />
          </mxGeometry>
        </mxCell>
        <mxCell id="OanUgY9QcuNFeh2ZwCuF-54" value="1/q" style="text;html=1;strokeColor=#000000;fillColor=none;align=center;verticalAlign=middle;whiteSpace=wrap;rounded=1;fontSize=16;strokeWidth=2;" parent="1" vertex="1">
          <mxGeometry x="215" y="760" width="40" height="20" as="geometry" />
        </mxCell>
        <mxCell id="OanUgY9QcuNFeh2ZwCuF-55" style="edgeStyle=none;rounded=0;orthogonalLoop=1;jettySize=auto;html=1;exitX=0.5;exitY=1;exitDx=0;exitDy=0;entryX=0.25;entryY=0;entryDx=0;entryDy=0;endArrow=none;endFill=0;fillColor=#d5e8d4;strokeColor=#82b366;fontSize=16;strokeWidth=2;" parent="1" source="OanUgY9QcuNFeh2ZwCuF-30" target="OanUgY9QcuNFeh2ZwCuF-54" edge="1">
          <mxGeometry relative="1" as="geometry">
            <mxPoint x="220" y="730" as="sourcePoint" />
            <mxPoint x="224.39339828220182" y="814.3933982822018" as="targetPoint" />
          </mxGeometry>
        </mxCell>
        <mxCell id="OanUgY9QcuNFeh2ZwCuF-56" value="1/q" style="text;html=1;strokeColor=#000000;fillColor=none;align=center;verticalAlign=middle;whiteSpace=wrap;rounded=1;fontSize=16;strokeWidth=2;" parent="1" vertex="1">
          <mxGeometry x="165" y="765" width="40" height="20" as="geometry" />
        </mxCell>
        <mxCell id="OanUgY9QcuNFeh2ZwCuF-57" style="edgeStyle=none;rounded=0;orthogonalLoop=1;jettySize=auto;html=1;exitX=1;exitY=0;exitDx=0;exitDy=0;entryX=0.5;entryY=1;entryDx=0;entryDy=0;endArrow=none;endFill=0;fillColor=#d5e8d4;strokeColor=#82b366;fontSize=16;strokeWidth=2;" parent="1" source="OanUgY9QcuNFeh2ZwCuF-43" target="OanUgY9QcuNFeh2ZwCuF-56" edge="1">
          <mxGeometry relative="1" as="geometry">
            <mxPoint x="180.60660171779818" y="799.3933982822018" as="sourcePoint" />
            <mxPoint x="209.39339828220182" y="725.6066017177982" as="targetPoint" />
          </mxGeometry>
        </mxCell>
      </root>
    </mxGraphModel>
  </diagram>
  <diagram id="z6O-D7uqciW8KH-7kzFd" name="第 2 页">
    <mxGraphModel dx="1248" dy="713" grid="1" gridSize="10" guides="1" tooltips="1" connect="1" arrows="1" fold="1" page="1" pageScale="1" pageWidth="827" pageHeight="1169" math="0" shadow="0">
      <root>
        <mxCell id="MOGm_5Slt02lBb6irt3B-0" />
        <mxCell id="MOGm_5Slt02lBb6irt3B-1" parent="MOGm_5Slt02lBb6irt3B-0" />
        <mxCell id="o1_7sDZjpMS_wiLTEsVP-0" value="1" style="ellipse;whiteSpace=wrap;html=1;fillColor=#dae8fc;strokeColor=#6c8ebf;" parent="MOGm_5Slt02lBb6irt3B-1" vertex="1">
          <mxGeometry x="57" y="60" width="30" height="30" as="geometry" />
        </mxCell>
        <mxCell id="o1_7sDZjpMS_wiLTEsVP-1" style="edgeStyle=none;rounded=0;orthogonalLoop=1;jettySize=auto;html=1;exitX=0;exitY=1;exitDx=0;exitDy=0;entryX=1;entryY=0;entryDx=0;entryDy=0;endArrow=none;endFill=0;" parent="MOGm_5Slt02lBb6irt3B-1" source="o1_7sDZjpMS_wiLTEsVP-2" target="o1_7sDZjpMS_wiLTEsVP-15" edge="1">
          <mxGeometry relative="1" as="geometry" />
        </mxCell>
        <mxCell id="o1_7sDZjpMS_wiLTEsVP-2" value="5" style="ellipse;whiteSpace=wrap;html=1;" parent="MOGm_5Slt02lBb6irt3B-1" vertex="1">
          <mxGeometry x="267" y="150" width="30" height="30" as="geometry" />
        </mxCell>
        <mxCell id="o1_7sDZjpMS_wiLTEsVP-3" style="edgeStyle=none;rounded=0;orthogonalLoop=1;jettySize=auto;html=1;exitX=0.5;exitY=0;exitDx=0;exitDy=0;entryX=0.5;entryY=1;entryDx=0;entryDy=0;endArrow=none;endFill=0;" parent="MOGm_5Slt02lBb6irt3B-1" source="o1_7sDZjpMS_wiLTEsVP-4" target="o1_7sDZjpMS_wiLTEsVP-0" edge="1">
          <mxGeometry relative="1" as="geometry" />
        </mxCell>
        <mxCell id="o1_7sDZjpMS_wiLTEsVP-4" value="7" style="ellipse;whiteSpace=wrap;html=1;" parent="MOGm_5Slt02lBb6irt3B-1" vertex="1">
          <mxGeometry x="82" y="200" width="30" height="30" as="geometry" />
        </mxCell>
        <mxCell id="o1_7sDZjpMS_wiLTEsVP-5" style="rounded=0;orthogonalLoop=1;jettySize=auto;html=1;entryX=1;entryY=1;entryDx=0;entryDy=0;endArrow=none;endFill=0;exitX=0;exitY=0.5;exitDx=0;exitDy=0;fillColor=#dae8fc;strokeColor=#6c8ebf;" parent="MOGm_5Slt02lBb6irt3B-1" source="o1_7sDZjpMS_wiLTEsVP-9" target="o1_7sDZjpMS_wiLTEsVP-0" edge="1">
          <mxGeometry relative="1" as="geometry">
            <mxPoint x="187" y="145" as="sourcePoint" />
          </mxGeometry>
        </mxCell>
        <mxCell id="o1_7sDZjpMS_wiLTEsVP-6" style="edgeStyle=none;rounded=0;orthogonalLoop=1;jettySize=auto;html=1;exitX=1;exitY=0.5;exitDx=0;exitDy=0;entryX=0;entryY=0.5;entryDx=0;entryDy=0;endArrow=none;endFill=0;" parent="MOGm_5Slt02lBb6irt3B-1" source="o1_7sDZjpMS_wiLTEsVP-9" target="o1_7sDZjpMS_wiLTEsVP-2" edge="1">
          <mxGeometry relative="1" as="geometry" />
        </mxCell>
        <mxCell id="o1_7sDZjpMS_wiLTEsVP-7" style="edgeStyle=none;rounded=0;orthogonalLoop=1;jettySize=auto;html=1;exitX=0.5;exitY=1;exitDx=0;exitDy=0;entryX=0;entryY=0;entryDx=0;entryDy=0;endArrow=none;endFill=0;" parent="MOGm_5Slt02lBb6irt3B-1" source="o1_7sDZjpMS_wiLTEsVP-9" target="o1_7sDZjpMS_wiLTEsVP-15" edge="1">
          <mxGeometry relative="1" as="geometry" />
        </mxCell>
        <mxCell id="o1_7sDZjpMS_wiLTEsVP-8" style="edgeStyle=none;rounded=0;orthogonalLoop=1;jettySize=auto;html=1;exitX=0;exitY=1;exitDx=0;exitDy=0;entryX=1;entryY=0;entryDx=0;entryDy=0;endArrow=none;endFill=0;" parent="MOGm_5Slt02lBb6irt3B-1" source="o1_7sDZjpMS_wiLTEsVP-9" target="o1_7sDZjpMS_wiLTEsVP-4" edge="1">
          <mxGeometry relative="1" as="geometry" />
        </mxCell>
        <mxCell id="o1_7sDZjpMS_wiLTEsVP-9" value="2" style="ellipse;whiteSpace=wrap;html=1;fillColor=#ffe6cc;strokeColor=#d79b00;" parent="MOGm_5Slt02lBb6irt3B-1" vertex="1">
          <mxGeometry x="192" y="130" width="30" height="30" as="geometry" />
        </mxCell>
        <mxCell id="o1_7sDZjpMS_wiLTEsVP-10" style="edgeStyle=none;rounded=0;orthogonalLoop=1;jettySize=auto;html=1;exitX=0;exitY=1;exitDx=0;exitDy=0;entryX=1;entryY=0.5;entryDx=0;entryDy=0;endArrow=none;endFill=0;fillColor=#dae8fc;strokeColor=#6c8ebf;" parent="MOGm_5Slt02lBb6irt3B-1" source="o1_7sDZjpMS_wiLTEsVP-14" target="o1_7sDZjpMS_wiLTEsVP-0" edge="1">
          <mxGeometry relative="1" as="geometry" />
        </mxCell>
        <mxCell id="o1_7sDZjpMS_wiLTEsVP-11" style="edgeStyle=none;rounded=0;orthogonalLoop=1;jettySize=auto;html=1;exitX=1;exitY=1;exitDx=0;exitDy=0;entryX=0;entryY=0.5;entryDx=0;entryDy=0;endArrow=none;endFill=0;fillColor=#f8cecc;strokeColor=#b85450;" parent="MOGm_5Slt02lBb6irt3B-1" source="o1_7sDZjpMS_wiLTEsVP-14" target="o1_7sDZjpMS_wiLTEsVP-19" edge="1">
          <mxGeometry relative="1" as="geometry" />
        </mxCell>
        <mxCell id="o1_7sDZjpMS_wiLTEsVP-12" style="edgeStyle=none;rounded=0;orthogonalLoop=1;jettySize=auto;html=1;exitX=1;exitY=0.5;exitDx=0;exitDy=0;entryX=0;entryY=0.5;entryDx=0;entryDy=0;endArrow=none;endFill=0;fillColor=#f8cecc;strokeColor=#b85450;" parent="MOGm_5Slt02lBb6irt3B-1" source="o1_7sDZjpMS_wiLTEsVP-14" target="o1_7sDZjpMS_wiLTEsVP-17" edge="1">
          <mxGeometry relative="1" as="geometry" />
        </mxCell>
        <mxCell id="o1_7sDZjpMS_wiLTEsVP-13" style="edgeStyle=none;rounded=0;orthogonalLoop=1;jettySize=auto;html=1;exitX=0.5;exitY=1;exitDx=0;exitDy=0;entryX=0.5;entryY=0;entryDx=0;entryDy=0;endArrow=none;endFill=0;fillColor=#ffe6cc;strokeColor=#d79b00;" parent="MOGm_5Slt02lBb6irt3B-1" source="o1_7sDZjpMS_wiLTEsVP-14" target="o1_7sDZjpMS_wiLTEsVP-9" edge="1">
          <mxGeometry relative="1" as="geometry" />
        </mxCell>
        <mxCell id="o1_7sDZjpMS_wiLTEsVP-14" value="4" style="ellipse;whiteSpace=wrap;html=1;fillColor=#ffe6cc;strokeColor=#d79b00;" parent="MOGm_5Slt02lBb6irt3B-1" vertex="1">
          <mxGeometry x="157" y="40" width="30" height="30" as="geometry" />
        </mxCell>
        <mxCell id="o1_7sDZjpMS_wiLTEsVP-15" value="8" style="ellipse;whiteSpace=wrap;html=1;" parent="MOGm_5Slt02lBb6irt3B-1" vertex="1">
          <mxGeometry x="207" y="240" width="30" height="30" as="geometry" />
        </mxCell>
        <mxCell id="o1_7sDZjpMS_wiLTEsVP-16" style="edgeStyle=none;rounded=0;orthogonalLoop=1;jettySize=auto;html=1;exitX=1;exitY=1;exitDx=0;exitDy=0;endArrow=none;endFill=0;entryX=0.5;entryY=0;entryDx=0;entryDy=0;" parent="MOGm_5Slt02lBb6irt3B-1" source="o1_7sDZjpMS_wiLTEsVP-17" target="o1_7sDZjpMS_wiLTEsVP-19" edge="1">
          <mxGeometry relative="1" as="geometry">
            <mxPoint x="447" y="160" as="targetPoint" />
          </mxGeometry>
        </mxCell>
        <mxCell id="o1_7sDZjpMS_wiLTEsVP-17" value="9" style="ellipse;whiteSpace=wrap;html=1;fillColor=#f8cecc;strokeColor=#b85450;" parent="MOGm_5Slt02lBb6irt3B-1" vertex="1">
          <mxGeometry x="327" y="70" width="30" height="30" as="geometry" />
        </mxCell>
        <mxCell id="o1_7sDZjpMS_wiLTEsVP-18" style="edgeStyle=none;rounded=0;orthogonalLoop=1;jettySize=auto;html=1;exitX=0;exitY=1;exitDx=0;exitDy=0;entryX=1;entryY=0;entryDx=0;entryDy=0;endArrow=none;endFill=0;" parent="MOGm_5Slt02lBb6irt3B-1" source="o1_7sDZjpMS_wiLTEsVP-19" target="o1_7sDZjpMS_wiLTEsVP-2" edge="1">
          <mxGeometry relative="1" as="geometry" />
        </mxCell>
        <mxCell id="o1_7sDZjpMS_wiLTEsVP-19" value="3" style="ellipse;whiteSpace=wrap;html=1;fillColor=#f8cecc;strokeColor=#b85450;" parent="MOGm_5Slt02lBb6irt3B-1" vertex="1">
          <mxGeometry x="297" y="110" width="30" height="30" as="geometry" />
        </mxCell>
        <mxCell id="o1_7sDZjpMS_wiLTEsVP-20" style="edgeStyle=none;rounded=0;orthogonalLoop=1;jettySize=auto;html=1;exitX=1;exitY=0;exitDx=0;exitDy=0;endArrow=none;endFill=0;" parent="MOGm_5Slt02lBb6irt3B-1" source="o1_7sDZjpMS_wiLTEsVP-22" target="o1_7sDZjpMS_wiLTEsVP-15" edge="1">
          <mxGeometry relative="1" as="geometry" />
        </mxCell>
        <mxCell id="o1_7sDZjpMS_wiLTEsVP-21" style="edgeStyle=none;rounded=0;orthogonalLoop=1;jettySize=auto;html=1;exitX=1;exitY=0;exitDx=0;exitDy=0;entryX=0;entryY=1;entryDx=0;entryDy=0;endArrow=none;endFill=0;" parent="MOGm_5Slt02lBb6irt3B-1" source="o1_7sDZjpMS_wiLTEsVP-22" target="o1_7sDZjpMS_wiLTEsVP-9" edge="1">
          <mxGeometry relative="1" as="geometry" />
        </mxCell>
        <mxCell id="o1_7sDZjpMS_wiLTEsVP-22" value="6" style="ellipse;whiteSpace=wrap;html=1;" parent="MOGm_5Slt02lBb6irt3B-1" vertex="1">
          <mxGeometry x="142" y="225" width="30" height="30" as="geometry" />
        </mxCell>
        <mxCell id="o1_7sDZjpMS_wiLTEsVP-23" value="" style="curved=1;endArrow=classic;html=1;entryX=1;entryY=1;entryDx=0;entryDy=0;exitX=1;exitY=0;exitDx=0;exitDy=0;fillColor=#d5e8d4;strokeColor=#82b366;strokeWidth=3;" parent="MOGm_5Slt02lBb6irt3B-1" source="o1_7sDZjpMS_wiLTEsVP-9" target="o1_7sDZjpMS_wiLTEsVP-14" edge="1">
          <mxGeometry width="50" height="50" relative="1" as="geometry">
            <mxPoint x="227" y="130" as="sourcePoint" />
            <mxPoint x="257" y="150" as="targetPoint" />
            <Array as="points">
              <mxPoint x="227" y="120" />
            </Array>
          </mxGeometry>
        </mxCell>
        <mxCell id="o1_7sDZjpMS_wiLTEsVP-24" value="近邻节点" style="text;html=1;strokeColor=none;fillColor=#dae8fc;align=center;verticalAlign=middle;whiteSpace=wrap;rounded=0;strokeWidth=1;fontSize=20;" parent="MOGm_5Slt02lBb6irt3B-1" vertex="1">
          <mxGeometry x="20" y="20" width="105" height="35" as="geometry" />
        </mxCell>
        <mxCell id="o1_7sDZjpMS_wiLTEsVP-25" value="远节点" style="text;html=1;strokeColor=none;fillColor=#f8cecc;align=center;verticalAlign=middle;whiteSpace=wrap;rounded=0;strokeWidth=1;fontSize=20;" parent="MOGm_5Slt02lBb6irt3B-1" vertex="1">
          <mxGeometry x="297" y="30" width="100" height="35" as="geometry" />
        </mxCell>
        <mxCell id="o1_7sDZjpMS_wiLTEsVP-26" value="1" style="ellipse;whiteSpace=wrap;html=1;fillColor=#dae8fc;strokeColor=#6c8ebf;" parent="MOGm_5Slt02lBb6irt3B-1" vertex="1">
          <mxGeometry x="450" y="60" width="30" height="30" as="geometry" />
        </mxCell>
        <mxCell id="o1_7sDZjpMS_wiLTEsVP-27" style="edgeStyle=none;rounded=0;orthogonalLoop=1;jettySize=auto;html=1;exitX=0;exitY=1;exitDx=0;exitDy=0;entryX=1;entryY=0;entryDx=0;entryDy=0;endArrow=none;endFill=0;startArrow=classic;startFill=1;" parent="MOGm_5Slt02lBb6irt3B-1" source="o1_7sDZjpMS_wiLTEsVP-28" target="o1_7sDZjpMS_wiLTEsVP-41" edge="1">
          <mxGeometry relative="1" as="geometry" />
        </mxCell>
        <mxCell id="o1_7sDZjpMS_wiLTEsVP-28" value="5" style="ellipse;whiteSpace=wrap;html=1;" parent="MOGm_5Slt02lBb6irt3B-1" vertex="1">
          <mxGeometry x="660" y="150" width="30" height="30" as="geometry" />
        </mxCell>
        <mxCell id="o1_7sDZjpMS_wiLTEsVP-29" style="edgeStyle=none;rounded=0;orthogonalLoop=1;jettySize=auto;html=1;exitX=0.5;exitY=0;exitDx=0;exitDy=0;entryX=0.5;entryY=1;entryDx=0;entryDy=0;endArrow=none;endFill=0;startArrow=classic;startFill=1;" parent="MOGm_5Slt02lBb6irt3B-1" source="o1_7sDZjpMS_wiLTEsVP-30" target="o1_7sDZjpMS_wiLTEsVP-26" edge="1">
          <mxGeometry relative="1" as="geometry" />
        </mxCell>
        <mxCell id="o1_7sDZjpMS_wiLTEsVP-30" value="7" style="ellipse;whiteSpace=wrap;html=1;" parent="MOGm_5Slt02lBb6irt3B-1" vertex="1">
          <mxGeometry x="475" y="200" width="30" height="30" as="geometry" />
        </mxCell>
        <mxCell id="o1_7sDZjpMS_wiLTEsVP-31" style="rounded=0;orthogonalLoop=1;jettySize=auto;html=1;entryX=1;entryY=1;entryDx=0;entryDy=0;endArrow=none;endFill=0;exitX=0;exitY=0.5;exitDx=0;exitDy=0;startArrow=classic;startFill=1;fillColor=#dae8fc;strokeColor=#6c8ebf;" parent="MOGm_5Slt02lBb6irt3B-1" source="o1_7sDZjpMS_wiLTEsVP-35" target="o1_7sDZjpMS_wiLTEsVP-26" edge="1">
          <mxGeometry relative="1" as="geometry">
            <mxPoint x="580" y="145" as="sourcePoint" />
          </mxGeometry>
        </mxCell>
        <mxCell id="o1_7sDZjpMS_wiLTEsVP-32" style="edgeStyle=none;rounded=0;orthogonalLoop=1;jettySize=auto;html=1;exitX=1;exitY=0.5;exitDx=0;exitDy=0;entryX=0;entryY=0.5;entryDx=0;entryDy=0;endArrow=classic;endFill=1;startArrow=none;startFill=0;" parent="MOGm_5Slt02lBb6irt3B-1" source="o1_7sDZjpMS_wiLTEsVP-35" target="o1_7sDZjpMS_wiLTEsVP-28" edge="1">
          <mxGeometry relative="1" as="geometry" />
        </mxCell>
        <mxCell id="o1_7sDZjpMS_wiLTEsVP-33" style="edgeStyle=none;rounded=0;orthogonalLoop=1;jettySize=auto;html=1;exitX=0.5;exitY=1;exitDx=0;exitDy=0;entryX=0;entryY=0;entryDx=0;entryDy=0;endArrow=none;endFill=0;startArrow=classic;startFill=1;" parent="MOGm_5Slt02lBb6irt3B-1" source="o1_7sDZjpMS_wiLTEsVP-35" target="o1_7sDZjpMS_wiLTEsVP-41" edge="1">
          <mxGeometry relative="1" as="geometry" />
        </mxCell>
        <mxCell id="o1_7sDZjpMS_wiLTEsVP-34" style="edgeStyle=none;rounded=0;orthogonalLoop=1;jettySize=auto;html=1;exitX=0;exitY=1;exitDx=0;exitDy=0;entryX=1;entryY=0;entryDx=0;entryDy=0;endArrow=none;endFill=0;startArrow=classic;startFill=1;" parent="MOGm_5Slt02lBb6irt3B-1" source="o1_7sDZjpMS_wiLTEsVP-35" target="o1_7sDZjpMS_wiLTEsVP-30" edge="1">
          <mxGeometry relative="1" as="geometry" />
        </mxCell>
        <mxCell id="o1_7sDZjpMS_wiLTEsVP-35" value="2" style="ellipse;whiteSpace=wrap;html=1;fillColor=#ffe6cc;strokeColor=#d79b00;" parent="MOGm_5Slt02lBb6irt3B-1" vertex="1">
          <mxGeometry x="585" y="130" width="30" height="30" as="geometry" />
        </mxCell>
        <mxCell id="o1_7sDZjpMS_wiLTEsVP-36" style="edgeStyle=none;rounded=0;orthogonalLoop=1;jettySize=auto;html=1;exitX=0;exitY=1;exitDx=0;exitDy=0;entryX=1;entryY=0.5;entryDx=0;entryDy=0;endArrow=classic;endFill=1;startArrow=none;startFill=0;fillColor=#dae8fc;strokeColor=#6c8ebf;" parent="MOGm_5Slt02lBb6irt3B-1" source="o1_7sDZjpMS_wiLTEsVP-40" target="o1_7sDZjpMS_wiLTEsVP-26" edge="1">
          <mxGeometry relative="1" as="geometry" />
        </mxCell>
        <mxCell id="o1_7sDZjpMS_wiLTEsVP-37" style="edgeStyle=none;rounded=0;orthogonalLoop=1;jettySize=auto;html=1;exitX=1;exitY=1;exitDx=0;exitDy=0;entryX=0;entryY=0.5;entryDx=0;entryDy=0;endArrow=none;endFill=0;startArrow=classic;startFill=1;" parent="MOGm_5Slt02lBb6irt3B-1" source="o1_7sDZjpMS_wiLTEsVP-40" target="o1_7sDZjpMS_wiLTEsVP-45" edge="1">
          <mxGeometry relative="1" as="geometry" />
        </mxCell>
        <mxCell id="o1_7sDZjpMS_wiLTEsVP-38" style="edgeStyle=none;rounded=0;orthogonalLoop=1;jettySize=auto;html=1;exitX=1;exitY=0.5;exitDx=0;exitDy=0;entryX=0;entryY=0.5;entryDx=0;entryDy=0;endArrow=classic;endFill=1;startArrow=none;startFill=0;fillColor=#f8cecc;strokeColor=#b85450;" parent="MOGm_5Slt02lBb6irt3B-1" source="o1_7sDZjpMS_wiLTEsVP-40" target="o1_7sDZjpMS_wiLTEsVP-43" edge="1">
          <mxGeometry relative="1" as="geometry" />
        </mxCell>
        <mxCell id="o1_7sDZjpMS_wiLTEsVP-39" style="edgeStyle=none;rounded=0;orthogonalLoop=1;jettySize=auto;html=1;exitX=0.5;exitY=1;exitDx=0;exitDy=0;entryX=0.5;entryY=0;entryDx=0;entryDy=0;endArrow=none;endFill=0;startArrow=classic;startFill=1;fillColor=#ffe6cc;strokeColor=#d79b00;" parent="MOGm_5Slt02lBb6irt3B-1" source="o1_7sDZjpMS_wiLTEsVP-40" target="o1_7sDZjpMS_wiLTEsVP-35" edge="1">
          <mxGeometry relative="1" as="geometry" />
        </mxCell>
        <mxCell id="o1_7sDZjpMS_wiLTEsVP-40" value="4" style="ellipse;whiteSpace=wrap;html=1;fillColor=#ffe6cc;strokeColor=#d79b00;" parent="MOGm_5Slt02lBb6irt3B-1" vertex="1">
          <mxGeometry x="550" y="40" width="30" height="30" as="geometry" />
        </mxCell>
        <mxCell id="o1_7sDZjpMS_wiLTEsVP-41" value="8" style="ellipse;whiteSpace=wrap;html=1;" parent="MOGm_5Slt02lBb6irt3B-1" vertex="1">
          <mxGeometry x="600" y="240" width="30" height="30" as="geometry" />
        </mxCell>
        <mxCell id="o1_7sDZjpMS_wiLTEsVP-42" style="edgeStyle=none;rounded=0;orthogonalLoop=1;jettySize=auto;html=1;exitX=1;exitY=1;exitDx=0;exitDy=0;endArrow=classic;endFill=1;entryX=0.5;entryY=0;entryDx=0;entryDy=0;" parent="MOGm_5Slt02lBb6irt3B-1" source="o1_7sDZjpMS_wiLTEsVP-43" target="o1_7sDZjpMS_wiLTEsVP-45" edge="1">
          <mxGeometry relative="1" as="geometry">
            <mxPoint x="840" y="160" as="targetPoint" />
          </mxGeometry>
        </mxCell>
        <mxCell id="o1_7sDZjpMS_wiLTEsVP-43" value="9" style="ellipse;whiteSpace=wrap;html=1;fillColor=#f8cecc;strokeColor=#b85450;" parent="MOGm_5Slt02lBb6irt3B-1" vertex="1">
          <mxGeometry x="720" y="70" width="30" height="30" as="geometry" />
        </mxCell>
        <mxCell id="o1_7sDZjpMS_wiLTEsVP-44" style="edgeStyle=none;rounded=0;orthogonalLoop=1;jettySize=auto;html=1;exitX=0;exitY=1;exitDx=0;exitDy=0;entryX=1;entryY=0;entryDx=0;entryDy=0;endArrow=none;endFill=0;startArrow=classic;startFill=1;" parent="MOGm_5Slt02lBb6irt3B-1" source="o1_7sDZjpMS_wiLTEsVP-45" target="o1_7sDZjpMS_wiLTEsVP-28" edge="1">
          <mxGeometry relative="1" as="geometry" />
        </mxCell>
        <mxCell id="o1_7sDZjpMS_wiLTEsVP-45" value="3" style="ellipse;whiteSpace=wrap;html=1;" parent="MOGm_5Slt02lBb6irt3B-1" vertex="1">
          <mxGeometry x="690" y="110" width="30" height="30" as="geometry" />
        </mxCell>
        <mxCell id="o1_7sDZjpMS_wiLTEsVP-46" style="edgeStyle=none;rounded=0;orthogonalLoop=1;jettySize=auto;html=1;exitX=1;exitY=0;exitDx=0;exitDy=0;endArrow=classic;endFill=1;" parent="MOGm_5Slt02lBb6irt3B-1" source="o1_7sDZjpMS_wiLTEsVP-48" target="o1_7sDZjpMS_wiLTEsVP-41" edge="1">
          <mxGeometry relative="1" as="geometry" />
        </mxCell>
        <mxCell id="o1_7sDZjpMS_wiLTEsVP-47" style="edgeStyle=none;rounded=0;orthogonalLoop=1;jettySize=auto;html=1;exitX=1;exitY=0;exitDx=0;exitDy=0;entryX=0;entryY=1;entryDx=0;entryDy=0;endArrow=classic;endFill=1;" parent="MOGm_5Slt02lBb6irt3B-1" source="o1_7sDZjpMS_wiLTEsVP-48" target="o1_7sDZjpMS_wiLTEsVP-35" edge="1">
          <mxGeometry relative="1" as="geometry" />
        </mxCell>
        <mxCell id="o1_7sDZjpMS_wiLTEsVP-48" value="6" style="ellipse;whiteSpace=wrap;html=1;" parent="MOGm_5Slt02lBb6irt3B-1" vertex="1">
          <mxGeometry x="535" y="225" width="30" height="30" as="geometry" />
        </mxCell>
        <mxCell id="o1_7sDZjpMS_wiLTEsVP-49" value="" style="curved=1;endArrow=classic;html=1;entryX=1;entryY=1;entryDx=0;entryDy=0;exitX=1;exitY=0;exitDx=0;exitDy=0;fillColor=#d5e8d4;strokeColor=#82b366;strokeWidth=3;" parent="MOGm_5Slt02lBb6irt3B-1" edge="1">
          <mxGeometry width="50" height="50" relative="1" as="geometry">
            <mxPoint x="605.6066017177982" y="134.39339828220182" as="sourcePoint" />
            <mxPoint x="570.6066017177982" y="65.60660171779818" as="targetPoint" />
            <Array as="points">
              <mxPoint x="615" y="120" />
            </Array>
          </mxGeometry>
        </mxCell>
        <mxCell id="o1_7sDZjpMS_wiLTEsVP-50" value="近邻节点" style="text;html=1;strokeColor=none;fillColor=#dae8fc;align=center;verticalAlign=middle;whiteSpace=wrap;rounded=0;strokeWidth=1;fontSize=20;" parent="MOGm_5Slt02lBb6irt3B-1" vertex="1">
          <mxGeometry x="427.5" y="15" width="105" height="40" as="geometry" />
        </mxCell>
        <mxCell id="o1_7sDZjpMS_wiLTEsVP-51" value="远节点" style="text;html=1;strokeColor=none;fillColor=#f8cecc;align=center;verticalAlign=middle;whiteSpace=wrap;rounded=0;strokeWidth=1;fontSize=20;" parent="MOGm_5Slt02lBb6irt3B-1" vertex="1">
          <mxGeometry x="700" y="30" width="100" height="35" as="geometry" />
        </mxCell>
        <mxCell id="KfAcPFmKUrb4T4xpKTYr-0" value="a)" style="text;html=1;strokeColor=none;fillColor=none;align=center;verticalAlign=middle;whiteSpace=wrap;rounded=0;fontSize=15;" parent="MOGm_5Slt02lBb6irt3B-1" vertex="1">
          <mxGeometry x="167" y="290" width="40" height="20" as="geometry" />
        </mxCell>
        <mxCell id="KfAcPFmKUrb4T4xpKTYr-1" value="b)" style="text;html=1;strokeColor=none;fillColor=none;align=center;verticalAlign=middle;whiteSpace=wrap;rounded=0;fontSize=15;" parent="MOGm_5Slt02lBb6irt3B-1" vertex="1">
          <mxGeometry x="565" y="290" width="40" height="20" as="geometry" />
        </mxCell>
        <mxCell id="KfAcPFmKUrb4T4xpKTYr-4" value="Fig 1. a）有向图；b）无向图。两个图的当前节点都是节点2，计算的下一跳节点都是节点4，近邻节点指的是到达节点2的距离为1，且为节点4的邻居的节点；远节点指的是，距离节点2的距离大于等于2，且为节点4的邻居节点；如果从一个节点有连边可以直接到达另一个节点，则称距离为1。" style="text;html=1;strokeColor=none;fillColor=none;align=center;verticalAlign=middle;whiteSpace=wrap;rounded=0;fontSize=15;" parent="MOGm_5Slt02lBb6irt3B-1" vertex="1">
          <mxGeometry x="89.5" y="320" width="676" height="60" as="geometry" />
        </mxCell>
      </root>
    </mxGraphModel>
  </diagram>
  <diagram id="M72ffC43r90BUQHRRzIU" name="第 3 页">
    <mxGraphModel dx="1248" dy="713" grid="1" gridSize="10" guides="1" tooltips="1" connect="1" arrows="1" fold="1" page="1" pageScale="1" pageWidth="827" pageHeight="1169" math="0" shadow="0">
      <root>
        <mxCell id="rfpEmfUa1RL6idIu01kx-0" />
        <mxCell id="rfpEmfUa1RL6idIu01kx-1" parent="rfpEmfUa1RL6idIu01kx-0" />
        <mxCell id="rfpEmfUa1RL6idIu01kx-6" style="rounded=0;orthogonalLoop=1;jettySize=auto;html=1;entryX=0;entryY=0.5;entryDx=0;entryDy=0;endArrow=none;endFill=0;edgeStyle=orthogonalEdgeStyle;curved=1;fillColor=#ffe6cc;strokeColor=#d79b00;" parent="rfpEmfUa1RL6idIu01kx-1" source="rfpEmfUa1RL6idIu01kx-2" target="rfpEmfUa1RL6idIu01kx-5" edge="1">
          <mxGeometry relative="1" as="geometry" />
        </mxCell>
        <mxCell id="rfpEmfUa1RL6idIu01kx-7" style="rounded=0;orthogonalLoop=1;jettySize=auto;html=1;endArrow=none;endFill=0;edgeStyle=orthogonalEdgeStyle;curved=1;fillColor=#ffe6cc;strokeColor=#d79b00;" parent="rfpEmfUa1RL6idIu01kx-1" source="rfpEmfUa1RL6idIu01kx-2" target="rfpEmfUa1RL6idIu01kx-4" edge="1">
          <mxGeometry relative="1" as="geometry" />
        </mxCell>
        <mxCell id="rfpEmfUa1RL6idIu01kx-11" style="rounded=0;orthogonalLoop=1;jettySize=auto;html=1;exitX=1;exitY=0;exitDx=0;exitDy=0;entryX=0.5;entryY=1;entryDx=0;entryDy=0;endArrow=none;endFill=0;" parent="rfpEmfUa1RL6idIu01kx-1" source="rfpEmfUa1RL6idIu01kx-2" target="rfpEmfUa1RL6idIu01kx-9" edge="1">
          <mxGeometry relative="1" as="geometry" />
        </mxCell>
        <mxCell id="rfpEmfUa1RL6idIu01kx-12" style="edgeStyle=none;rounded=0;orthogonalLoop=1;jettySize=auto;html=1;exitX=1;exitY=1;exitDx=0;exitDy=0;entryX=0;entryY=0;entryDx=0;entryDy=0;endArrow=none;endFill=0;" parent="rfpEmfUa1RL6idIu01kx-1" source="rfpEmfUa1RL6idIu01kx-2" target="rfpEmfUa1RL6idIu01kx-10" edge="1">
          <mxGeometry relative="1" as="geometry" />
        </mxCell>
        <mxCell id="rfpEmfUa1RL6idIu01kx-2" value="1" style="ellipse;whiteSpace=wrap;html=1;fillColor=#f8cecc;strokeColor=#b85450;" parent="rfpEmfUa1RL6idIu01kx-1" vertex="1">
          <mxGeometry x="195" y="116.5" width="30" height="30" as="geometry" />
        </mxCell>
        <mxCell id="rfpEmfUa1RL6idIu01kx-19" style="edgeStyle=none;rounded=0;orthogonalLoop=1;jettySize=auto;html=1;exitX=0.5;exitY=1;exitDx=0;exitDy=0;entryX=0.5;entryY=0;entryDx=0;entryDy=0;endArrow=none;endFill=0;" parent="rfpEmfUa1RL6idIu01kx-1" source="rfpEmfUa1RL6idIu01kx-4" target="rfpEmfUa1RL6idIu01kx-16" edge="1">
          <mxGeometry relative="1" as="geometry" />
        </mxCell>
        <mxCell id="rfpEmfUa1RL6idIu01kx-4" value="2" style="ellipse;whiteSpace=wrap;html=1;fillColor=#ffe6cc;strokeColor=#d79b00;" parent="rfpEmfUa1RL6idIu01kx-1" vertex="1">
          <mxGeometry x="125" y="116.5" width="30" height="30" as="geometry" />
        </mxCell>
        <mxCell id="rfpEmfUa1RL6idIu01kx-13" style="edgeStyle=none;rounded=0;orthogonalLoop=1;jettySize=auto;html=1;exitX=0;exitY=0;exitDx=0;exitDy=0;entryX=1;entryY=1;entryDx=0;entryDy=0;endArrow=none;endFill=0;" parent="rfpEmfUa1RL6idIu01kx-1" source="rfpEmfUa1RL6idIu01kx-5" target="rfpEmfUa1RL6idIu01kx-9" edge="1">
          <mxGeometry relative="1" as="geometry" />
        </mxCell>
        <mxCell id="rfpEmfUa1RL6idIu01kx-14" style="edgeStyle=none;rounded=0;orthogonalLoop=1;jettySize=auto;html=1;exitX=0;exitY=1;exitDx=0;exitDy=0;endArrow=none;endFill=0;" parent="rfpEmfUa1RL6idIu01kx-1" source="rfpEmfUa1RL6idIu01kx-5" target="rfpEmfUa1RL6idIu01kx-10" edge="1">
          <mxGeometry relative="1" as="geometry" />
        </mxCell>
        <mxCell id="rfpEmfUa1RL6idIu01kx-5" value="3" style="ellipse;whiteSpace=wrap;html=1;fillColor=#ffe6cc;strokeColor=#d79b00;" parent="rfpEmfUa1RL6idIu01kx-1" vertex="1">
          <mxGeometry x="285" y="116.5" width="30" height="30" as="geometry" />
        </mxCell>
        <mxCell id="rfpEmfUa1RL6idIu01kx-9" value="4" style="ellipse;whiteSpace=wrap;html=1;" parent="rfpEmfUa1RL6idIu01kx-1" vertex="1">
          <mxGeometry x="223" y="41.5" width="30" height="30" as="geometry" />
        </mxCell>
        <mxCell id="rfpEmfUa1RL6idIu01kx-10" value="5" style="ellipse;whiteSpace=wrap;html=1;" parent="rfpEmfUa1RL6idIu01kx-1" vertex="1">
          <mxGeometry x="245" y="186.5" width="30" height="30" as="geometry" />
        </mxCell>
        <mxCell id="rfpEmfUa1RL6idIu01kx-23" style="edgeStyle=none;rounded=0;orthogonalLoop=1;jettySize=auto;html=1;exitX=0;exitY=0.5;exitDx=0;exitDy=0;entryX=1;entryY=0.5;entryDx=0;entryDy=0;endArrow=none;endFill=0;" parent="rfpEmfUa1RL6idIu01kx-1" source="rfpEmfUa1RL6idIu01kx-15" target="rfpEmfUa1RL6idIu01kx-5" edge="1">
          <mxGeometry relative="1" as="geometry" />
        </mxCell>
        <mxCell id="rfpEmfUa1RL6idIu01kx-15" value="6" style="ellipse;whiteSpace=wrap;html=1;" parent="rfpEmfUa1RL6idIu01kx-1" vertex="1">
          <mxGeometry x="355" y="116.5" width="30" height="30" as="geometry" />
        </mxCell>
        <mxCell id="rfpEmfUa1RL6idIu01kx-16" value="9" style="ellipse;whiteSpace=wrap;html=1;" parent="rfpEmfUa1RL6idIu01kx-1" vertex="1">
          <mxGeometry x="125" y="186.5" width="30" height="30" as="geometry" />
        </mxCell>
        <mxCell id="rfpEmfUa1RL6idIu01kx-20" style="edgeStyle=none;rounded=0;orthogonalLoop=1;jettySize=auto;html=1;exitX=1;exitY=0.5;exitDx=0;exitDy=0;entryX=0;entryY=0.5;entryDx=0;entryDy=0;endArrow=none;endFill=0;" parent="rfpEmfUa1RL6idIu01kx-1" source="rfpEmfUa1RL6idIu01kx-17" target="rfpEmfUa1RL6idIu01kx-4" edge="1">
          <mxGeometry relative="1" as="geometry" />
        </mxCell>
        <mxCell id="rfpEmfUa1RL6idIu01kx-17" value="8" style="ellipse;whiteSpace=wrap;html=1;" parent="rfpEmfUa1RL6idIu01kx-1" vertex="1">
          <mxGeometry x="45" y="116.5" width="30" height="30" as="geometry" />
        </mxCell>
        <mxCell id="rfpEmfUa1RL6idIu01kx-22" style="edgeStyle=none;rounded=0;orthogonalLoop=1;jettySize=auto;html=1;exitX=0.5;exitY=1;exitDx=0;exitDy=0;endArrow=none;endFill=0;" parent="rfpEmfUa1RL6idIu01kx-1" source="rfpEmfUa1RL6idIu01kx-18" target="rfpEmfUa1RL6idIu01kx-4" edge="1">
          <mxGeometry relative="1" as="geometry" />
        </mxCell>
        <mxCell id="rfpEmfUa1RL6idIu01kx-18" value="7" style="ellipse;whiteSpace=wrap;html=1;" parent="rfpEmfUa1RL6idIu01kx-1" vertex="1">
          <mxGeometry x="125" y="41.5" width="30" height="30" as="geometry" />
        </mxCell>
        <mxCell id="rfpEmfUa1RL6idIu01kx-24" style="rounded=0;orthogonalLoop=1;jettySize=auto;html=1;entryX=0;entryY=0.5;entryDx=0;entryDy=0;endArrow=none;endFill=0;edgeStyle=orthogonalEdgeStyle;curved=1;fillColor=#ffe6cc;strokeColor=#d79b00;" parent="rfpEmfUa1RL6idIu01kx-1" source="rfpEmfUa1RL6idIu01kx-28" target="rfpEmfUa1RL6idIu01kx-33" edge="1">
          <mxGeometry relative="1" as="geometry" />
        </mxCell>
        <mxCell id="rfpEmfUa1RL6idIu01kx-25" style="rounded=0;orthogonalLoop=1;jettySize=auto;html=1;endArrow=none;endFill=0;edgeStyle=orthogonalEdgeStyle;curved=1;fillColor=#ffe6cc;strokeColor=#d79b00;" parent="rfpEmfUa1RL6idIu01kx-1" source="rfpEmfUa1RL6idIu01kx-28" target="rfpEmfUa1RL6idIu01kx-30" edge="1">
          <mxGeometry relative="1" as="geometry" />
        </mxCell>
        <mxCell id="rfpEmfUa1RL6idIu01kx-28" value="1" style="ellipse;whiteSpace=wrap;html=1;fillColor=#f8cecc;strokeColor=#b85450;" parent="rfpEmfUa1RL6idIu01kx-1" vertex="1">
          <mxGeometry x="566" y="117.5" width="30" height="30" as="geometry" />
        </mxCell>
        <mxCell id="rfpEmfUa1RL6idIu01kx-29" style="edgeStyle=none;rounded=0;orthogonalLoop=1;jettySize=auto;html=1;exitX=0.5;exitY=1;exitDx=0;exitDy=0;entryX=0.5;entryY=0;entryDx=0;entryDy=0;endArrow=none;endFill=0;" parent="rfpEmfUa1RL6idIu01kx-1" source="rfpEmfUa1RL6idIu01kx-30" target="rfpEmfUa1RL6idIu01kx-38" edge="1">
          <mxGeometry relative="1" as="geometry" />
        </mxCell>
        <mxCell id="rfpEmfUa1RL6idIu01kx-30" value="2" style="ellipse;whiteSpace=wrap;html=1;fillColor=#ffe6cc;strokeColor=#d79b00;" parent="rfpEmfUa1RL6idIu01kx-1" vertex="1">
          <mxGeometry x="496" y="117.5" width="30" height="30" as="geometry" />
        </mxCell>
        <mxCell id="rfpEmfUa1RL6idIu01kx-33" value="3" style="ellipse;whiteSpace=wrap;html=1;fillColor=#ffe6cc;strokeColor=#d79b00;" parent="rfpEmfUa1RL6idIu01kx-1" vertex="1">
          <mxGeometry x="656" y="117.5" width="30" height="30" as="geometry" />
        </mxCell>
        <mxCell id="rfpEmfUa1RL6idIu01kx-43" style="edgeStyle=none;rounded=0;orthogonalLoop=1;jettySize=auto;html=1;exitX=0.5;exitY=1;exitDx=0;exitDy=0;entryX=0.5;entryY=0;entryDx=0;entryDy=0;endArrow=none;endFill=0;" parent="rfpEmfUa1RL6idIu01kx-1" source="rfpEmfUa1RL6idIu01kx-34" target="rfpEmfUa1RL6idIu01kx-33" edge="1">
          <mxGeometry relative="1" as="geometry" />
        </mxCell>
        <mxCell id="rfpEmfUa1RL6idIu01kx-34" value="4" style="ellipse;whiteSpace=wrap;html=1;" parent="rfpEmfUa1RL6idIu01kx-1" vertex="1">
          <mxGeometry x="653" y="42.5" width="30" height="30" as="geometry" />
        </mxCell>
        <mxCell id="rfpEmfUa1RL6idIu01kx-44" style="edgeStyle=none;rounded=0;orthogonalLoop=1;jettySize=auto;html=1;exitX=0.5;exitY=0;exitDx=0;exitDy=0;entryX=0.5;entryY=1;entryDx=0;entryDy=0;endArrow=none;endFill=0;" parent="rfpEmfUa1RL6idIu01kx-1" source="rfpEmfUa1RL6idIu01kx-35" target="rfpEmfUa1RL6idIu01kx-33" edge="1">
          <mxGeometry relative="1" as="geometry" />
        </mxCell>
        <mxCell id="rfpEmfUa1RL6idIu01kx-35" value="5" style="ellipse;whiteSpace=wrap;html=1;" parent="rfpEmfUa1RL6idIu01kx-1" vertex="1">
          <mxGeometry x="653" y="187.5" width="30" height="30" as="geometry" />
        </mxCell>
        <mxCell id="rfpEmfUa1RL6idIu01kx-38" value="9" style="ellipse;whiteSpace=wrap;html=1;" parent="rfpEmfUa1RL6idIu01kx-1" vertex="1">
          <mxGeometry x="496" y="187.5" width="30" height="30" as="geometry" />
        </mxCell>
        <mxCell id="rfpEmfUa1RL6idIu01kx-39" style="edgeStyle=none;rounded=0;orthogonalLoop=1;jettySize=auto;html=1;exitX=1;exitY=0.5;exitDx=0;exitDy=0;entryX=0;entryY=0.5;entryDx=0;entryDy=0;endArrow=none;endFill=0;" parent="rfpEmfUa1RL6idIu01kx-1" source="rfpEmfUa1RL6idIu01kx-40" target="rfpEmfUa1RL6idIu01kx-30" edge="1">
          <mxGeometry relative="1" as="geometry" />
        </mxCell>
        <mxCell id="rfpEmfUa1RL6idIu01kx-40" value="8" style="ellipse;whiteSpace=wrap;html=1;" parent="rfpEmfUa1RL6idIu01kx-1" vertex="1">
          <mxGeometry x="413" y="117.5" width="30" height="30" as="geometry" />
        </mxCell>
        <mxCell id="rfpEmfUa1RL6idIu01kx-41" style="edgeStyle=none;rounded=0;orthogonalLoop=1;jettySize=auto;html=1;exitX=0.5;exitY=1;exitDx=0;exitDy=0;endArrow=none;endFill=0;" parent="rfpEmfUa1RL6idIu01kx-1" source="rfpEmfUa1RL6idIu01kx-42" target="rfpEmfUa1RL6idIu01kx-30" edge="1">
          <mxGeometry relative="1" as="geometry" />
        </mxCell>
        <mxCell id="rfpEmfUa1RL6idIu01kx-42" value="7" style="ellipse;whiteSpace=wrap;html=1;" parent="rfpEmfUa1RL6idIu01kx-1" vertex="1">
          <mxGeometry x="496" y="42.5" width="30" height="30" as="geometry" />
        </mxCell>
        <mxCell id="rfpEmfUa1RL6idIu01kx-45" style="rounded=0;orthogonalLoop=1;jettySize=auto;html=1;entryX=0;entryY=0.5;entryDx=0;entryDy=0;endArrow=none;endFill=0;edgeStyle=orthogonalEdgeStyle;curved=1;fillColor=#ffe6cc;strokeColor=#d79b00;" parent="rfpEmfUa1RL6idIu01kx-1" source="rfpEmfUa1RL6idIu01kx-49" target="rfpEmfUa1RL6idIu01kx-54" edge="1">
          <mxGeometry relative="1" as="geometry" />
        </mxCell>
        <mxCell id="rfpEmfUa1RL6idIu01kx-46" style="rounded=0;orthogonalLoop=1;jettySize=auto;html=1;endArrow=none;endFill=0;edgeStyle=orthogonalEdgeStyle;curved=1;fillColor=#ffe6cc;strokeColor=#d79b00;" parent="rfpEmfUa1RL6idIu01kx-1" source="rfpEmfUa1RL6idIu01kx-49" target="rfpEmfUa1RL6idIu01kx-51" edge="1">
          <mxGeometry relative="1" as="geometry" />
        </mxCell>
        <mxCell id="rfpEmfUa1RL6idIu01kx-47" style="rounded=0;orthogonalLoop=1;jettySize=auto;html=1;exitX=1;exitY=0;exitDx=0;exitDy=0;entryX=0.5;entryY=1;entryDx=0;entryDy=0;endArrow=none;endFill=0;" parent="rfpEmfUa1RL6idIu01kx-1" source="rfpEmfUa1RL6idIu01kx-49" target="rfpEmfUa1RL6idIu01kx-55" edge="1">
          <mxGeometry relative="1" as="geometry" />
        </mxCell>
        <mxCell id="rfpEmfUa1RL6idIu01kx-48" style="edgeStyle=none;rounded=0;orthogonalLoop=1;jettySize=auto;html=1;exitX=1;exitY=1;exitDx=0;exitDy=0;entryX=0;entryY=0;entryDx=0;entryDy=0;endArrow=none;endFill=0;" parent="rfpEmfUa1RL6idIu01kx-1" source="rfpEmfUa1RL6idIu01kx-49" target="rfpEmfUa1RL6idIu01kx-56" edge="1">
          <mxGeometry relative="1" as="geometry" />
        </mxCell>
        <mxCell id="rfpEmfUa1RL6idIu01kx-49" value="1" style="ellipse;whiteSpace=wrap;html=1;fillColor=#f8cecc;strokeColor=#b85450;" parent="rfpEmfUa1RL6idIu01kx-1" vertex="1">
          <mxGeometry x="562.9091186523438" y="345" width="30" height="30" as="geometry" />
        </mxCell>
        <mxCell id="rfpEmfUa1RL6idIu01kx-66" style="edgeStyle=none;rounded=0;orthogonalLoop=1;jettySize=auto;html=1;exitX=1;exitY=0;exitDx=0;exitDy=0;entryX=0;entryY=0.5;entryDx=0;entryDy=0;endArrow=none;endFill=0;" parent="rfpEmfUa1RL6idIu01kx-1" source="rfpEmfUa1RL6idIu01kx-51" target="rfpEmfUa1RL6idIu01kx-55" edge="1">
          <mxGeometry relative="1" as="geometry" />
        </mxCell>
        <mxCell id="rfpEmfUa1RL6idIu01kx-67" style="edgeStyle=none;rounded=0;orthogonalLoop=1;jettySize=auto;html=1;exitX=1;exitY=1;exitDx=0;exitDy=0;entryX=0;entryY=0.5;entryDx=0;entryDy=0;endArrow=none;endFill=0;" parent="rfpEmfUa1RL6idIu01kx-1" source="rfpEmfUa1RL6idIu01kx-51" target="rfpEmfUa1RL6idIu01kx-56" edge="1">
          <mxGeometry relative="1" as="geometry" />
        </mxCell>
        <mxCell id="rfpEmfUa1RL6idIu01kx-51" value="2" style="ellipse;whiteSpace=wrap;html=1;fillColor=#ffe6cc;strokeColor=#d79b00;" parent="rfpEmfUa1RL6idIu01kx-1" vertex="1">
          <mxGeometry x="492.90911865234375" y="345" width="30" height="30" as="geometry" />
        </mxCell>
        <mxCell id="rfpEmfUa1RL6idIu01kx-52" style="edgeStyle=none;rounded=0;orthogonalLoop=1;jettySize=auto;html=1;exitX=0;exitY=0;exitDx=0;exitDy=0;entryX=1;entryY=1;entryDx=0;entryDy=0;endArrow=none;endFill=0;" parent="rfpEmfUa1RL6idIu01kx-1" source="rfpEmfUa1RL6idIu01kx-54" target="rfpEmfUa1RL6idIu01kx-55" edge="1">
          <mxGeometry relative="1" as="geometry" />
        </mxCell>
        <mxCell id="rfpEmfUa1RL6idIu01kx-53" style="edgeStyle=none;rounded=0;orthogonalLoop=1;jettySize=auto;html=1;exitX=0;exitY=1;exitDx=0;exitDy=0;endArrow=none;endFill=0;" parent="rfpEmfUa1RL6idIu01kx-1" source="rfpEmfUa1RL6idIu01kx-54" target="rfpEmfUa1RL6idIu01kx-56" edge="1">
          <mxGeometry relative="1" as="geometry" />
        </mxCell>
        <mxCell id="rfpEmfUa1RL6idIu01kx-54" value="3" style="ellipse;whiteSpace=wrap;html=1;fillColor=#ffe6cc;strokeColor=#d79b00;" parent="rfpEmfUa1RL6idIu01kx-1" vertex="1">
          <mxGeometry x="652.9091186523438" y="345" width="30" height="30" as="geometry" />
        </mxCell>
        <mxCell id="rfpEmfUa1RL6idIu01kx-55" value="4" style="ellipse;whiteSpace=wrap;html=1;" parent="rfpEmfUa1RL6idIu01kx-1" vertex="1">
          <mxGeometry x="590.9091186523438" y="270" width="30" height="30" as="geometry" />
        </mxCell>
        <mxCell id="rfpEmfUa1RL6idIu01kx-56" value="5" style="ellipse;whiteSpace=wrap;html=1;" parent="rfpEmfUa1RL6idIu01kx-1" vertex="1">
          <mxGeometry x="612.9091186523438" y="415" width="30" height="30" as="geometry" />
        </mxCell>
        <mxCell id="rfpEmfUa1RL6idIu01kx-57" style="edgeStyle=none;rounded=0;orthogonalLoop=1;jettySize=auto;html=1;exitX=0;exitY=0.5;exitDx=0;exitDy=0;entryX=1;entryY=0.5;entryDx=0;entryDy=0;endArrow=none;endFill=0;" parent="rfpEmfUa1RL6idIu01kx-1" source="rfpEmfUa1RL6idIu01kx-58" target="rfpEmfUa1RL6idIu01kx-54" edge="1">
          <mxGeometry relative="1" as="geometry" />
        </mxCell>
        <mxCell id="rfpEmfUa1RL6idIu01kx-58" value="6" style="ellipse;whiteSpace=wrap;html=1;" parent="rfpEmfUa1RL6idIu01kx-1" vertex="1">
          <mxGeometry x="722.9091186523438" y="345" width="30" height="30" as="geometry" />
        </mxCell>
        <mxCell id="rfpEmfUa1RL6idIu01kx-60" style="edgeStyle=none;rounded=0;orthogonalLoop=1;jettySize=auto;html=1;exitX=1;exitY=0.5;exitDx=0;exitDy=0;entryX=0;entryY=0.5;entryDx=0;entryDy=0;endArrow=none;endFill=0;" parent="rfpEmfUa1RL6idIu01kx-1" source="rfpEmfUa1RL6idIu01kx-61" target="rfpEmfUa1RL6idIu01kx-51" edge="1">
          <mxGeometry relative="1" as="geometry" />
        </mxCell>
        <mxCell id="rfpEmfUa1RL6idIu01kx-61" value="8" style="ellipse;whiteSpace=wrap;html=1;" parent="rfpEmfUa1RL6idIu01kx-1" vertex="1">
          <mxGeometry x="412.90911865234375" y="345" width="30" height="30" as="geometry" />
        </mxCell>
        <mxCell id="rfpEmfUa1RL6idIu01kx-62" style="edgeStyle=none;rounded=0;orthogonalLoop=1;jettySize=auto;html=1;exitX=0.5;exitY=1;exitDx=0;exitDy=0;endArrow=none;endFill=0;" parent="rfpEmfUa1RL6idIu01kx-1" source="rfpEmfUa1RL6idIu01kx-63" target="rfpEmfUa1RL6idIu01kx-51" edge="1">
          <mxGeometry relative="1" as="geometry" />
        </mxCell>
        <mxCell id="rfpEmfUa1RL6idIu01kx-63" value="7" style="ellipse;whiteSpace=wrap;html=1;" parent="rfpEmfUa1RL6idIu01kx-1" vertex="1">
          <mxGeometry x="492.90911865234375" y="270" width="30" height="30" as="geometry" />
        </mxCell>
        <mxCell id="rfpEmfUa1RL6idIu01kx-69" value="a)" style="text;html=1;strokeColor=none;fillColor=none;align=center;verticalAlign=middle;whiteSpace=wrap;rounded=0;strokeWidth=1;fontSize=16;" parent="rfpEmfUa1RL6idIu01kx-1" vertex="1">
          <mxGeometry x="185" y="234" width="40" height="20" as="geometry" />
        </mxCell>
        <mxCell id="rfpEmfUa1RL6idIu01kx-70" value="d)" style="text;html=1;strokeColor=none;fillColor=none;align=center;verticalAlign=middle;whiteSpace=wrap;rounded=0;strokeWidth=1;fontSize=16;" parent="rfpEmfUa1RL6idIu01kx-1" vertex="1">
          <mxGeometry x="565.9091186523438" y="461" width="40" height="20" as="geometry" />
        </mxCell>
        <mxCell id="rfpEmfUa1RL6idIu01kx-71" value="b)" style="text;html=1;strokeColor=none;fillColor=none;align=center;verticalAlign=middle;whiteSpace=wrap;rounded=0;strokeWidth=1;fontSize=16;" parent="rfpEmfUa1RL6idIu01kx-1" vertex="1">
          <mxGeometry x="565.9091186523438" y="234" width="40" height="20" as="geometry" />
        </mxCell>
        <mxCell id="40jTSXzXWRYbmWVgNakl-0" value="Fig 2. 当前节点为节点1，分别以节点2、3为例子计算下一跳节点的奖励，分类讨论：a）节点2，3度相同，但节点3与节点1的相同邻居节点数量较多；b）节点2，3的度不同，且与节点1没有邻居节点；c）节点2，3的度相同，且与节点1邻居节点数量相同；d）节点2，3度不同，但与节点1邻居节点数量相同。" style="text;html=1;strokeColor=none;fillColor=none;align=center;verticalAlign=middle;whiteSpace=wrap;rounded=0;fontSize=15;" parent="rfpEmfUa1RL6idIu01kx-1" vertex="1">
          <mxGeometry x="99.5" y="481" width="571" height="90" as="geometry" />
        </mxCell>
        <mxCell id="40jTSXzXWRYbmWVgNakl-1" style="rounded=0;orthogonalLoop=1;jettySize=auto;html=1;entryX=0;entryY=0.5;entryDx=0;entryDy=0;endArrow=none;endFill=0;edgeStyle=orthogonalEdgeStyle;curved=1;fillColor=#ffe6cc;strokeColor=#d79b00;" parent="rfpEmfUa1RL6idIu01kx-1" source="40jTSXzXWRYbmWVgNakl-3" target="40jTSXzXWRYbmWVgNakl-6" edge="1">
          <mxGeometry relative="1" as="geometry" />
        </mxCell>
        <mxCell id="40jTSXzXWRYbmWVgNakl-2" style="rounded=0;orthogonalLoop=1;jettySize=auto;html=1;endArrow=none;endFill=0;edgeStyle=orthogonalEdgeStyle;curved=1;fillColor=#ffe6cc;strokeColor=#d79b00;" parent="rfpEmfUa1RL6idIu01kx-1" target="40jTSXzXWRYbmWVgNakl-5" edge="1">
          <mxGeometry relative="1" as="geometry">
            <mxPoint x="199.5" y="360" as="sourcePoint" />
          </mxGeometry>
        </mxCell>
        <mxCell id="40jTSXzXWRYbmWVgNakl-22" style="edgeStyle=none;rounded=0;orthogonalLoop=1;jettySize=auto;html=1;exitX=0.5;exitY=0;exitDx=0;exitDy=0;entryX=0.5;entryY=1;entryDx=0;entryDy=0;endArrow=none;endFill=0;fontSize=15;" parent="rfpEmfUa1RL6idIu01kx-1" source="40jTSXzXWRYbmWVgNakl-3" target="40jTSXzXWRYbmWVgNakl-8" edge="1">
          <mxGeometry relative="1" as="geometry" />
        </mxCell>
        <mxCell id="40jTSXzXWRYbmWVgNakl-23" style="edgeStyle=none;rounded=0;orthogonalLoop=1;jettySize=auto;html=1;exitX=0.5;exitY=1;exitDx=0;exitDy=0;entryX=0.5;entryY=0;entryDx=0;entryDy=0;endArrow=none;endFill=0;fontSize=15;" parent="rfpEmfUa1RL6idIu01kx-1" source="40jTSXzXWRYbmWVgNakl-3" target="40jTSXzXWRYbmWVgNakl-10" edge="1">
          <mxGeometry relative="1" as="geometry" />
        </mxCell>
        <mxCell id="40jTSXzXWRYbmWVgNakl-3" value="1" style="ellipse;whiteSpace=wrap;html=1;fillColor=#f8cecc;strokeColor=#b85450;" parent="rfpEmfUa1RL6idIu01kx-1" vertex="1">
          <mxGeometry x="198" y="344.5" width="30" height="30" as="geometry" />
        </mxCell>
        <mxCell id="40jTSXzXWRYbmWVgNakl-18" style="rounded=0;orthogonalLoop=1;jettySize=auto;html=1;exitX=1;exitY=0;exitDx=0;exitDy=0;entryX=0.5;entryY=1;entryDx=0;entryDy=0;fontSize=15;endArrow=none;endFill=0;" parent="rfpEmfUa1RL6idIu01kx-1" source="40jTSXzXWRYbmWVgNakl-5" target="40jTSXzXWRYbmWVgNakl-8" edge="1">
          <mxGeometry relative="1" as="geometry" />
        </mxCell>
        <mxCell id="40jTSXzXWRYbmWVgNakl-19" style="edgeStyle=none;rounded=0;orthogonalLoop=1;jettySize=auto;html=1;exitX=1;exitY=1;exitDx=0;exitDy=0;entryX=0.5;entryY=0;entryDx=0;entryDy=0;endArrow=none;endFill=0;fontSize=15;" parent="rfpEmfUa1RL6idIu01kx-1" source="40jTSXzXWRYbmWVgNakl-5" target="40jTSXzXWRYbmWVgNakl-10" edge="1">
          <mxGeometry relative="1" as="geometry" />
        </mxCell>
        <mxCell id="40jTSXzXWRYbmWVgNakl-5" value="2" style="ellipse;whiteSpace=wrap;html=1;fillColor=#ffe6cc;strokeColor=#d79b00;" parent="rfpEmfUa1RL6idIu01kx-1" vertex="1">
          <mxGeometry x="128" y="344.5" width="30" height="30" as="geometry" />
        </mxCell>
        <mxCell id="40jTSXzXWRYbmWVgNakl-20" style="edgeStyle=none;rounded=0;orthogonalLoop=1;jettySize=auto;html=1;exitX=0;exitY=0;exitDx=0;exitDy=0;endArrow=none;endFill=0;fontSize=15;" parent="rfpEmfUa1RL6idIu01kx-1" source="40jTSXzXWRYbmWVgNakl-6" edge="1">
          <mxGeometry relative="1" as="geometry">
            <mxPoint x="210" y="300" as="targetPoint" />
          </mxGeometry>
        </mxCell>
        <mxCell id="40jTSXzXWRYbmWVgNakl-21" style="edgeStyle=none;rounded=0;orthogonalLoop=1;jettySize=auto;html=1;exitX=0;exitY=1;exitDx=0;exitDy=0;entryX=0.5;entryY=0;entryDx=0;entryDy=0;endArrow=none;endFill=0;fontSize=15;" parent="rfpEmfUa1RL6idIu01kx-1" source="40jTSXzXWRYbmWVgNakl-6" target="40jTSXzXWRYbmWVgNakl-10" edge="1">
          <mxGeometry relative="1" as="geometry" />
        </mxCell>
        <mxCell id="40jTSXzXWRYbmWVgNakl-6" value="3" style="ellipse;whiteSpace=wrap;html=1;fillColor=#ffe6cc;strokeColor=#d79b00;" parent="rfpEmfUa1RL6idIu01kx-1" vertex="1">
          <mxGeometry x="288" y="344.5" width="30" height="30" as="geometry" />
        </mxCell>
        <mxCell id="40jTSXzXWRYbmWVgNakl-8" value="4" style="ellipse;whiteSpace=wrap;html=1;" parent="rfpEmfUa1RL6idIu01kx-1" vertex="1">
          <mxGeometry x="198" y="270" width="30" height="30" as="geometry" />
        </mxCell>
        <mxCell id="40jTSXzXWRYbmWVgNakl-10" value="5" style="ellipse;whiteSpace=wrap;html=1;" parent="rfpEmfUa1RL6idIu01kx-1" vertex="1">
          <mxGeometry x="203" y="403" width="30" height="30" as="geometry" />
        </mxCell>
        <mxCell id="40jTSXzXWRYbmWVgNakl-12" style="edgeStyle=none;rounded=0;orthogonalLoop=1;jettySize=auto;html=1;exitX=1;exitY=0.5;exitDx=0;exitDy=0;entryX=0;entryY=0.5;entryDx=0;entryDy=0;endArrow=none;endFill=0;" parent="rfpEmfUa1RL6idIu01kx-1" source="40jTSXzXWRYbmWVgNakl-13" target="40jTSXzXWRYbmWVgNakl-5" edge="1">
          <mxGeometry relative="1" as="geometry" />
        </mxCell>
        <mxCell id="40jTSXzXWRYbmWVgNakl-13" value="8" style="ellipse;whiteSpace=wrap;html=1;" parent="rfpEmfUa1RL6idIu01kx-1" vertex="1">
          <mxGeometry x="45" y="344.5" width="30" height="30" as="geometry" />
        </mxCell>
        <mxCell id="40jTSXzXWRYbmWVgNakl-16" value="c)" style="text;html=1;strokeColor=none;fillColor=none;align=center;verticalAlign=middle;whiteSpace=wrap;rounded=0;strokeWidth=1;fontSize=16;" parent="rfpEmfUa1RL6idIu01kx-1" vertex="1">
          <mxGeometry x="185" y="461" width="40" height="20" as="geometry" />
        </mxCell>
      </root>
    </mxGraphModel>
  </diagram>
</mxfile>
